<svg id="레이어_1" data-name="레이어 1" xmlns="http://www.w3.org/2000/svg" viewBox="0 0 508.64 441.29"><defs><style>.cls-1{fill:#e0e0e0;}.cls-2{fill:#ededed;}.cls-3{fill:#f2f2f2;}.cls-4,.cls-5{fill:none;stroke:#000;stroke-miterlimit:10;}.cls-5{stroke-width:5px;}</style></defs><path class="cls-1" d="M401.48,62.23s29.21,8.61,30.64-22c0,0,24.15-14.5,46.92,5.83,0,0-13.26,18.87-15.53,19.09s-8.4-.89-8.4-.89,27.6,31.85,32.06,32.26c0,0-34.69,31.53-64.88,33.6L410.83,92.78l-3,16-21.38,3.69S378.6,71.41,401.48,62.23Z"/><path class="cls-2" d="M358.53,200.82l52.26,96.85s28.16-15.2,26.32-18.78S405,216.06,402.68,211.7,464,256.65,465.9,255,485.62,229,485.62,229l-88.17-64.35Z"/><polyline class="cls-2" points="358.53 200.82 356.07 198.05 394.71 161.68 397.45 164.61"/><path class="cls-2" d="M378.05,184.85s6.37,7.73,14.44,12.05"/><path class="cls-2" d="M405.22,174c-6.22,3.64-10.24-.22-10.24-.22l1-1.16a7,7,0,0,0,8.41-.07Z"/><path class="cls-2" d="M365.3,210.88a8.4,8.4,0,0,0,.39-9.95l-1.3.76a8.72,8.72,0,0,1,.27,8.11Z"/><path d="M153.19,235c7.74-.26,0-38.19,0-38.19s-9.47-11.87,1.72,24.9C148.41,234.46,153.19,235,153.19,235Z"/><path d="M187.74,94.83c-.19-.11-1.72-1-4.27-2.37-17.15-13.92-23.55-74.58,15.59-68.85,26.47,3.89,34.07,25.17,36.05,40.54a63.12,63.12,0,0,0,.36,16.24,74.09,74.09,0,0,0-.36-16.24c1.7-15.21,10.4-34.18,45.3-24,54.11,15.75,14.62,55,13.37,56.24.83-.59,21.72-15.06,37.08,1.63,15.68,17,17.52,29.34,6.92,51.15a38.93,38.93,0,0,1-2.4,4c-17.18,26.58-17.47,35.25-17.32,36.86a33.55,33.55,0,0,0-2-6.92c-10.57-25-21.17,18.06-21.17,18.06s0-17.81-4.9-28.39-10.33-3.61-32,2.51-37.16-13.35-58.9-15.41-36.43,47.48-36.43,47.48-2.47-33.55-17.56-19.61c0,0-28-7.74-31.63-24.77s27.87-16,27.87-16S86.6,131,107.25,94.84c17.3-30.28,62.16-9.8,76.22-2.38A13,13,0,0,0,187.74,94.83Z"/><path d="M306.32,190.32s5.36-8.65-3.26,30.52c-.66,3,1.61,11,1.61,11C292.8,226.71,306.32,190.32,306.32,190.32Z"/><path d="M280.41,200.9S278,225.68,267.63,220s-1.79-22.61-1.79-22.61A43.5,43.5,0,0,1,280.41,200.9Z"/><path class="cls-3" d="M183.87,312.67a53.64,53.64,0,0,0-1-12.29c11.55,13.92,29.57,24.28,57.58,24.64a21.08,21.08,0,0,0,4.69-.46c4.48-1,13.12-3.92,22.11-12.86A24.82,24.82,0,0,0,264,327.46l-.25,0C230.66,352.58,184.7,313.38,183.87,312.67Z"/><path d="M217.88,204.68c.31,2,.83,13.64-10.25,15.71-10.93,2-8.32-18.67-8.24-19.28C207.38,200.1,214.72,203.11,217.88,204.68Z"/><path class="cls-4" d="M267.27,311.66c10.31-10.29,21.08-28.51,26.49-60.74a253.78,253.78,0,0,0,2.91-26"/><path class="cls-4" d="M182.86,300.38c11.55,13.92,29.57,24.28,57.58,24.64a21.08,21.08,0,0,0,4.69-.46c4.48-1,13.12-3.92,22.11-12.86"/><path class="cls-4" d="M163,224.9a133,133,0,0,0,1.45,31.72c2.33,14.14,7.46,30.55,18.42,43.75"/><path class="cls-4" d="M318.09,190.22a.16.16,0,0,1,0,.1c4.79,26.46-13.83,68.51-24.35,60.6h0"/><path class="cls-4" d="M164.44,256.62c-12,12.87-39.13-46.17-21.84-66.3a29.67,29.67,0,0,1,2.47-2.58c15.09-13.94,17.56,19.61,17.56,19.61s14.69-49.54,36.43-47.48,37.22,21.53,58.9,15.41,27.09-13.09,32-2.51,4.9,28.39,4.9,28.39,10.6-43.1,21.17-18.06a33.55,33.55,0,0,1,2,6.92"/><path class="cls-5" d="M182.86,191.61s14.45,6.71,40.26-3.87"/><path class="cls-5" d="M251.76,187.74s19.1-9.29,34.33-1.81"/><path class="cls-4" d="M247.63,192.13s-11.87,21.68,10.59,51.09c0,0,6.67,10.21-8.11,9.45l-.54,0"/><path class="cls-4" d="M247.76,233.68s4.44,12.5,2.35,19c-.82,2.57-2.67,4.19-6.22,3.72-12.51-1.68-16.13.51-18.06.9s-9,.13-3.49-15c0,0,2.22-4.64,7.31-4.26"/><path class="cls-4" d="M219.51,205.55s-.59-.36-1.63-.87c-3.16-1.57-10.5-4.58-18.49-3.57-6.28.79-13,4.06-18.34,12.48"/><path class="cls-4" d="M199.39,201.1h0c-.08.61-2.69,21.31,8.24,19.28,11.08-2.07,10.56-13.71,10.25-15.71h0"/><path class="cls-4" d="M265.84,197.39c-14.55-.69-20.79,8.67-20.79,8.67"/><path class="cls-4" d="M265.84,197.39s-8.53,16.93,1.79,22.61,12.78-19.1,12.78-19.1A43.5,43.5,0,0,0,265.84,197.39Z"/><path class="cls-4" d="M204.8,277.55s42.58-4.65,56,0c0,0,4.9-13.42-35.1-7"/><path class="cls-4" d="M221.31,284.26s10.58,14.19,33.29,0"/><path class="cls-4" d="M182.86,300.37h0a53.64,53.64,0,0,1,1,12.29c-.38,14.18-6.17,36.48-37.18,43.77-13,3.07-30.5,3.5-53.89-.44,0,0-33-6.19-40.26,48.51"/><path class="cls-4" d="M267.28,311.64v0l0,0A24.82,24.82,0,0,0,264,327.46c1.14,7.27,6.44,15.64,22.07,21.91,13.75,5.51,35.49,9.4,69.42,9.48,0,0,39.22,1.28,42.32,63.21"/><path class="cls-4" d="M286.09,349.37S246,462.7,146.69,356.45"/><path class="cls-4" d="M293.75,96.39l0,0c.83-.59,21.72-15.06,37.08,1.63,15.68,17,17.52,29.34,6.92,51.15a38.93,38.93,0,0,1-2.4,4c-17.18,26.58-17.47,35.25-17.32,36.86,0,.09,0,.15,0,.2a.65.65,0,0,0,0,.1"/><path class="cls-4" d="M235.11,64.15c1.7-15.21,10.4-34.18,45.3-24,54.11,15.75,14.62,55,13.37,56.24"/><path class="cls-4" d="M235.11,64.15a74.09,74.09,0,0,1,.36,16.24A63.12,63.12,0,0,1,235.11,64.15Z"/><path class="cls-4" d="M187.76,94.84h0a13,13,0,0,1-4.27-2.37c-17.15-13.92-23.55-74.58,15.59-68.85,26.47,3.89,34.07,25.17,36.05,40.54"/><path class="cls-4" d="M145.07,187.74s-28-7.74-31.63-24.77,27.87-16,27.87-16S86.6,131,107.25,94.84c17.3-30.28,62.16-9.8,76.22-2.38,2.55,1.34,4.08,2.26,4.27,2.37"/><path class="cls-4" d="M395.86,63.72s31,9.15,32.56-23.39c0,0,25.66-15.42,49.85,6.18,0,0-14.09,20.06-16.5,20.29s-8.93-1-8.93-1,29.33,33.85,34.06,34.29c0,0-36.85,33.5-68.94,35.7L405.79,96.18l-3.21,17-22.73,3.92S371.54,73.48,395.86,63.72Z"/><path class="cls-4" d="M357.3,205.75l52.26,96.85s28.16-15.2,26.32-18.78S403.75,221,401.45,216.63s61.32,44.95,63.22,43.32,19.72-26.06,19.72-26.06l-88.17-64.35Z"/><polyline class="cls-4" points="357.3 205.75 354.84 202.98 393.48 166.61 396.22 169.54"/><path class="cls-4" d="M376.82,189.78s6.37,7.73,14.44,12.05"/><path class="cls-4" d="M404,178.92c-6.22,3.64-10.24-.22-10.24-.22l1-1.16a7,7,0,0,0,8.41-.07Z"/><path class="cls-4" d="M364.07,215.81a8.4,8.4,0,0,0,.39-9.95l-1.3.76a8.72,8.72,0,0,1,.27,8.11Z"/><path d="M60.11,111.28,72.78,104C55.08,81.4,77,12.08,34.46,27.78s-9.77,46.89-9.77,46.89l9.82-7.28s-14.53-18.76,6.4-21c0,0,9.55-.78,9,23.48a78.82,78.82,0,0,0,10.58,41.29"/><circle cx="74.07" cy="119.97" r="8.4"/></svg>