<svg id="레이어_1" data-name="레이어 1" xmlns="http://www.w3.org/2000/svg" viewBox="0 0 508.64 441.29"><defs><style>.cls-1{fill:#fff;}.cls-2{fill:#e8e8e8;}.cls-3{fill:#020202;}.cls-4,.cls-5,.cls-6{fill:none;stroke:#000;}.cls-4,.cls-6{stroke-miterlimit:10;}.cls-5,.cls-6{stroke-linecap:round;}.cls-5{stroke-linejoin:round;stroke-width:0.5px;}.cls-6{stroke-width:5px;}.cls-7{fill:#c6c6c6;}.cls-8{fill:#919191;}</style></defs><rect class="cls-1" x="125.2" y="60.58" width="255.99" height="358.71"/><path d="M380.69,61.08V418.79h-255V61.08h255m1-1h-257V419.79h257V60.08Z"/><path class="cls-2" d="M229.12,152s-32.73-3.87-34.71,38.17l15.41,7.08-2.55,24.86s61.44,6,66.54-5.76c-2.22-11.83-7.18-33.08-7.18-33.08l5.82,7.31,15.49-20.48S266.06,140.05,229.12,152Z"/><path class="cls-1" d="M274.23,249.4a21.13,21.13,0,0,0,4.71,5.92.66.66,0,0,1-.26,1.17c-3.09.61-5-3.94-5-3.94.72,4.51,2,5.56,2,5.56-3,2.17-5.26-8.69-5.51-9.93a1.13,1.13,0,0,0,0-.12l-.45-4.62c4.87-3.4,6.53-7.64,6.24-11.95,6.29-9.34,15.65-20.86,19.92-26a3.51,3.51,0,0,0-.51-5l-11.89-12.09c1.82-2.47,3.66-5.07,5.16-7.19.5.44,18.57,16.72,14,26.09s-19.87,25.7-26,36.14l-.86,1.45c1.89,1.29,5.85,3,5,3.9s-5.39-.92-5.39-.92c2.65,3.85,8.81,3.41,6.25,5.22S274.48,249.68,274.23,249.4Z"/><path d="M241.44,104.32c-.56.54-5.86,5.39-12,4.18-3.9-.76-4.79.17-4.87,1a3.6,3.6,0,0,1-1.62,2.54,24.61,24.61,0,0,1-5.27,2.79c-3.45,1.23-7.18,1.18-8.84-3.55-3.32-9.47,5-13,9.46-14.44-3.89-2.39-5.89-6.39-4.55-9.68,1.54-3.82,7-5.22,12.16-3.12a11.86,11.86,0,0,1,6,5.15h0a10,10,0,0,1-.64-8.46c2.24-5.54,9.49-7.83,16.18-5.13s10.3,9.4,8.06,15l.11.06c3.17-5,10.23-7,16.72-4.33,7.21,2.92,11,10.36,8.45,16.63a10.87,10.87,0,0,1-3.35,4.43,17.75,17.75,0,0,1,12.6.49c8,3.25,12.46,11,9.92,17.23-1.79,4.43-6.6,6.95-12.1,6.9a16.71,16.71,0,0,1,12.3,15.82c0,9.16-7.86,16.59-17.54,16.59a17.07,17.07,0,0,1-1.91-.1,18.19,18.19,0,0,1-7.09-2.27,11,11,0,0,1-21.49-.63,9.1,9.1,0,0,1-6.79-4.74,9.08,9.08,0,0,1,.49-9.3,11.76,11.76,0,0,1-3.43-5.46,12.12,12.12,0,0,1-.51-3.49,11.77,11.77,0,0,1,6.87-10.86c-5.35-.23-9.73-5-10.58-11.27h0a16.56,16.56,0,0,1-.15-2.25c0-.35,0-.71,0-1.06A14.76,14.76,0,0,1,241.44,104.32Z"/><path class="cls-1" d="M282.62,368.36l-10,1.52-12.74,1.93-14.62-79.73-1.8-35.39-5.14,35.9,11.82,81-8.09.72-10.42.93-11.74,1.05s-4-72.69-4.64-85.77c-.59-12.17,5.9-57.57,6.8-63.78a225.74,225.74,0,0,0,27.31,1.18l3.87,9.31v0c-1.39.62-2.44,1.08-2.93,1.31,0,0,8,11,16.73,6.47a22.3,22.3,0,0,0,2.66-1.61l.45,4.62a1.13,1.13,0,0,1,0,.12l3.81,38.9,19.62,79.61Z"/><path d="M288.36,396.1l-3.44.84s1.08-6.49-4.79-6.9-5.52,8.36-5.52,8.36-23.35,7.31-24.62,2.3a10.22,10.22,0,0,1-.24-1.23,6.55,6.55,0,0,1,2.05-6.09l8.1-1.87c13.2-1.34,12.88-18.32,12.69-21.63l10-1.52C285,378.6,288.36,396.1,288.36,396.1Z"/><path d="M275.91,231.49c.29,4.31-1.37,8.55-6.24,11.95h0C270,241,272.47,236.59,275.91,231.49Z"/><path d="M275.15,227.62a17.1,17.1,0,0,1,.76,3.87c-3.44,5.1-6,9.54-6.24,11.94l-1.26-12.85,3.81-1.67Z"/><path d="M273.89,224.5l1.26,3.12-2.93,1.29-1.52-3.48C271.81,225.15,272.87,224.84,273.89,224.5Z"/><path d="M269.67,243.43h0a22.3,22.3,0,0,1-2.66,1.61c-8.72,4.55-16.73-6.47-16.73-6.47.49-.23,1.54-.69,2.93-1.31l4.15-1.83,11.05-4.86Z"/><path d="M257.29,235.29l.07.15-4.15,1.83v0l-3.87-9.31c1.62,0,3.24-.1,4.84-.2Z"/><path d="M224.39,155.55l29.78,72.19c-1.6.1-3.22.16-4.84.2l-29.47-71.1h0a34.69,34.69,0,0,1,4.53-1.29Z"/><path d="M247.83,402.45l-3.53.87s1.12-6.67-4.93-7.09-5.67,8.59-5.67,8.59-24,7.53-25.32,2.36,1.86-7.52,1.86-7.52l8.33-1.93c13.91-1.4,13.21-19.75,13-22.47l10.42-.93c1.87,8.07,4.26,20.17,5.3,25.47Z"/><path class="cls-1" d="M245.87,147.36a9.08,9.08,0,0,0-.49,9.3c-7.95,6.32-12.77-1.88-12.77-1.88V144.61a25,25,0,0,0,6.15-1.37l3.67-1.34h0A11.76,11.76,0,0,0,245.87,147.36Z"/><path class="cls-1" d="M231.16,118.33c0,.22-.2,3.18,2.07,3s2.44-4.39,1.29-4.79h0a6,6,0,0,1,1.55.08l2.14-.33h0c.85,6.25,5.23,11,10.58,11.27a11.77,11.77,0,0,0-6.87,10.86,12.12,12.12,0,0,0,.51,3.49h0l-3.67,1.34a25,25,0,0,1-6.15,1.37c-13.1,1.07-15.35-12.72-15.38-22.18l2.63,0c0,1.25.94,2.73,2.38,2s1.11-2.87.83-4c.74,0,1.32,0,1.32,0l2.38.38a10.35,10.35,0,0,0-.51-3.36c-1.06-2.3-7.44-.76-7.44-.76l-1.33-.12c.06-.7.13-1.28.18-1.72a24.61,24.61,0,0,0,5.27-2.79,3.6,3.6,0,0,0,1.62-2.54c.08-.87,1-1.8,4.87-1,6.15,1.21,11.45-3.64,12-4.18A14.76,14.76,0,0,0,238.1,113l-2-.11a5.5,5.5,0,0,0-5.67,2.31l1.58,2.32a4.53,4.53,0,0,0-.82.83Z"/><path class="cls-3" d="M234.52,116.54c1.15.4,1.06,4.59-1.29,4.79s-2.09-2.78-2.07-3h0a4.53,4.53,0,0,1,.82-.83,4.6,4.6,0,0,1,2.54-1Z"/><path class="cls-1" d="M223.07,120.46c-1.09.05-2.54.27-3,1a1.91,1.91,0,0,0-.23,1l-2.63,0c0-2.3.13-4.33.26-5.84l1.33.12s6.38-1.54,7.44.76a10.35,10.35,0,0,1,.51,3.36l-2.38-.38S223.81,120.42,223.07,120.46Z"/><path class="cls-3" d="M223.07,120.46c.28,1.12.57,3.34-.83,4s-2.38-.8-2.38-2a1.91,1.91,0,0,1,.23-1C220.53,120.73,222,120.51,223.07,120.46Z"/><path class="cls-1" d="M201.86,278.43l-.42,1.22c-.7,2.36-2.55,6.71-3.17,5.9-.83-1.06,2.74-12.11,2.74-12.11-3,4.7-9.14,3.35-6.06,2s6.78-8.36,6.78-8.36c1.54-11.93,0-72.37,0-72.37l7.78,3.57h0s-.07,12.94-.23,27.73c-.2,19.56-.59,42.35-1.22,42.79l1.89,6.92s.19,8.27-1.45,9.71-1.21-8.82-1.16-10.23c-.09,1.4-.8,11.84-1.33,11.48s-1.55-2.21-1.61-8c-2.09,12.53-2,9-2.82,9S201.82,278.79,201.86,278.43Z"/><path class="cls-4" d="M217.8,113.89s-.06.34-.13,1c0,.44-.12,1-.18,1.72-.13,1.51-.26,3.54-.26,5.84,0,9.46,2.28,23.25,15.38,22.18a25,25,0,0,0,6.15-1.37l3.67-1.34"/><path class="cls-4" d="M218.82,116.71s6.38-1.54,7.44.76a10.35,10.35,0,0,1,.51,3.36c.12,3.11-.11,6.88.8,6.75,1.29-.2,3.12-.2,3.21-1.54"/><path class="cls-4" d="M230.4,115.17a5.5,5.5,0,0,1,5.67-2.31"/><path class="cls-4" d="M231.16,118.32a4.53,4.53,0,0,1,.82-.83,4.6,4.6,0,0,1,2.54-1,6,6,0,0,1,1.55.08"/><path class="cls-4" d="M230.78,118.92a2.72,2.72,0,0,1,.38-.59"/><path class="cls-4" d="M231.16,118.32h0c0,.22-.2,3.18,2.07,3s2.44-4.39,1.29-4.79"/><path class="cls-4" d="M224.39,120.45s-.58,0-1.32,0c-1.09.05-2.54.27-3,1a1.91,1.91,0,0,0-.23,1c0,1.25.94,2.73,2.38,2s1.11-2.87.83-4a2.63,2.63,0,0,0-.22-.64"/><path class="cls-4" d="M238.06,130.6a24.15,24.15,0,0,1-11.75,4.81,4.11,4.11,0,0,1,3.61-2.79c2.83-.2,1.53-2.06,3-1.44"/><path class="cls-4" d="M229.43,136.81a8.2,8.2,0,0,0,7.32-2.07"/><path class="cls-4" d="M232.61,154.78a32.45,32.45,0,0,0-8.22.76,34.69,34.69,0,0,0-4.53,1.29c-9.63,3.44-21.29,12.49-22,36.12l3.83,1.77,7.78,3.57,3.81,1.74"/><path class="cls-4" d="M245.77,156.34l-.39.32c-7.95,6.32-12.77-1.88-12.77-1.88V144.61"/><path class="cls-4" d="M255.55,90.58c2.24-5.55-1.37-12.23-8.06-15s-13.94-.41-16.18,5.13a10,10,0,0,0,.64,8.46,13.55,13.55,0,0,0,3.62,4.28"/><path class="cls-4" d="M241.47,104.28l0,0A14.76,14.76,0,0,0,238.1,113c0,.35,0,.71,0,1.06a16.56,16.56,0,0,0,.15,2.25h0c.85,6.25,5.23,11,10.58,11.27a11.77,11.77,0,0,0-6.87,10.86,12.12,12.12,0,0,0,.51,3.49,11.76,11.76,0,0,0,3.43,5.46,9.08,9.08,0,0,0-.49,9.3,9.1,9.1,0,0,0,6.79,4.74,11,11,0,0,0,21.49.63,18.19,18.19,0,0,0,7.09,2.27,17.07,17.07,0,0,0,1.91.1c9.68,0,17.54-7.43,17.54-16.59A16.71,16.71,0,0,0,287.9,132c5.5,0,10.31-2.47,12.1-6.9,2.54-6.27-1.9-14-9.92-17.23a17.75,17.75,0,0,0-12.6-.49,10.87,10.87,0,0,0,3.35-4.43c2.53-6.27-1.24-13.71-8.45-16.63-6.49-2.63-13.55-.68-16.72,4.33a9,9,0,0,0-.77,1.44"/><path class="cls-4" d="M232.83,93.31a6.87,6.87,0,0,0-.89-4.08,11.86,11.86,0,0,0-6-5.15c-5.18-2.1-10.62-.7-12.16,3.12-1.34,3.29.66,7.29,4.55,9.68-4.42,1.4-12.78,5-9.46,14.44,1.66,4.73,5.39,4.78,8.84,3.55a24.61,24.61,0,0,0,5.27-2.79,3.6,3.6,0,0,0,1.62-2.54c.08-.87,1-1.8,4.87-1,6.15,1.21,11.45-3.64,12-4.18"/><path class="cls-4" d="M269.68,190c-1.9-2.61-3.6-4.94-4.06-4.94"/><path class="cls-4" d="M280.74,164.29h0c.44.4,11.9,11,11,12.28-.25.35-1.5,2.18-3.18,4.62-1.5,2.12-3.34,4.72-5.16,7.19-3.47,4.69-6.88,8.93-7.76,8.69s-3.64-3.89-6-7.09"/><path class="cls-4" d="M211.91,179.4s2-1,1.41,20.63c-.18,6.35-.61,14.66-1.37,25.51,0,.17,0,.34,0,.51"/><path class="cls-4" d="M212,225.54c.23,0,4.14.62,10.07,1.22a225.74,225.74,0,0,0,27.31,1.18c1.62,0,3.24-.1,4.84-.2A91,91,0,0,0,268,226c.94-.17,1.85-.38,2.74-.61,1.11-.28,2.17-.59,3.19-.93.61-.19,1.21-.4,1.78-.62s-5.79-32.92-6-33.89a0,0,0,0,0,0,0"/><path class="cls-5" d="M211.94,225.54h0"/><path class="cls-4" d="M222.12,226.05s0,.25-.1.71c-.9,6.21-7.39,51.61-6.8,63.78.62,13.08,4.64,85.77,4.64,85.77l11.74-1.05,10.42-.93,8.09-.72-11.82-81,5.14-35.9,1.8,35.39,14.62,79.73,12.74-1.93,10-1.52,10.95-1.67"/><polyline class="cls-4" points="270.14 248.18 273.95 287.08 293.56 366.69"/><polyline class="cls-4" points="267.96 226.05 268.41 230.59 269.67 243.43 269.67 243.44 270.12 248.06"/><path class="cls-4" d="M231.57,374.92l0,.34c.18,2.72.88,21.07-13,22.47l-8.33,1.93s-3.16,2.37-1.86,7.52,25.32-2.36,25.32-2.36-.37-9,5.67-8.59,4.93,7.09,4.93,7.09l3.53-.87-.51-2.65c-1-5.3-3.43-17.4-5.3-25.47,0-.16-.07-.31-.11-.47"/><path class="cls-4" d="M272.55,369.32s0,.2,0,.56c.19,3.31.51,20.29-12.69,21.63l-8.1,1.87a6.55,6.55,0,0,0-2.05,6.09,10.22,10.22,0,0,0,.24,1.23c1.27,5,24.62-2.3,24.62-2.3s-.36-8.78,5.52-8.36,4.79,6.9,4.79,6.9l3.44-.84s-3.36-17.5-5.74-27.74c0,0,0-.05,0-.07"/><path class="cls-4" d="M283.43,188.39l11.89,12.09a3.51,3.51,0,0,1,.51,5c-4.27,5.17-13.63,16.69-19.92,26-3.44,5.1-6,9.54-6.24,11.94"/><path class="cls-4" d="M274.23,249.4c.25.28,4.92,5.45,7.39,3.68s-3.6-1.37-6.25-5.22c0,0,4.58,1.82,5.39.92s-3.15-2.61-5-3.9l.86-1.45c6.15-10.44,21.41-26.66,26-36.14s-13.51-25.65-14-26.09h0"/><path class="cls-4" d="M270.12,248.06a1.13,1.13,0,0,1,0,.12c.25,1.24,2.48,12.1,5.51,9.93,0,0-1.26-1.05-2-5.56,0,0,1.92,4.55,5,3.94a.66.66,0,0,0,.26-1.17,21.13,21.13,0,0,1-4.71-5.92,0,0,0,0,1,0,0"/><line class="cls-4" x1="201.86" y1="278.42" x2="202.22" y2="277.41"/><path class="cls-4" d="M201.73,194.72s1.54,60.44,0,72.37c0,0-3.7,7-6.78,8.36s3.08,2.69,6.06-2c0,0-3.57,11.05-2.74,12.11.62.81,2.47-3.54,3.17-5.9l.42-1.22"/><path class="cls-4" d="M207.35,275.07a1.09,1.09,0,0,1,0,.12v0c-.09,1.4-.8,11.84-1.33,11.48s-1.55-2.21-1.61-8c0-1,0-2.06.07-3.27"/><path class="cls-4" d="M209.51,198.3s-.07,12.94-.23,27.73c-.2,19.56-.59,42.35-1.22,42.79l1.89,6.92s.19,8.27-1.45,9.71-1.21-8.82-1.16-10.23"/><path class="cls-4" d="M201.86,278.42h0c0,.36-1.06,9.26-.28,9.29s.73,3.53,2.82-9"/><polyline class="cls-4" points="224.39 155.55 254.17 227.74 257.29 235.29"/><polyline class="cls-4" points="219.86 156.84 249.33 227.94 253.2 237.25"/><path class="cls-4" d="M273.89,224.5l1.26,3.12-2.93,1.29-3.81,1.67-11.05,4.86-4.15,1.83c-1.39.62-2.44,1.08-2.93,1.31,0,0,8,11,16.73,6.47a22.3,22.3,0,0,0,2.66-1.61c4.87-3.4,6.53-7.64,6.24-11.95a17.1,17.1,0,0,0-.76-3.87"/><line class="cls-4" x1="270.7" y1="225.43" x2="272.22" y2="228.91"/><path class="cls-1" d="M153.05,47.91A19.41,19.41,0,1,1,172.46,28.5,19.44,19.44,0,0,1,153.05,47.91Z"/><path d="M153.05,9.59A18.91,18.91,0,1,1,134.13,28.5,18.93,18.93,0,0,1,153.05,9.59m0-1A19.91,19.91,0,1,0,173,28.5,19.91,19.91,0,0,0,153.05,8.59Z"/><line class="cls-6" x1="184.34" y1="19.36" x2="224.26" y2="19.36"/><line class="cls-6" x1="184.34" y1="37.19" x2="277.26" y2="37.19"/><path class="cls-7" d="M393.46,85v20.25a8.65,8.65,0,0,1-8.65,8.65h-8.7l-12.38,10.67V113.94H355a8.65,8.65,0,0,1-8.65-8.65V85A8.65,8.65,0,0,1,355,76.39h29.78A8.65,8.65,0,0,1,393.46,85ZM378.92,99.83c4.14-5.8,5.74-11.74,3.59-13.28s-7.24,1.93-11.38,7.73a33.29,33.29,0,0,0-2.06,3.28,33.49,33.49,0,0,0-2-3.26c-4.11-5.82-9.19-9.3-11.35-7.77s-.57,7.47,3.54,13.29c2.7,3.81,5.81,6.61,8.24,7.66a.34.34,0,0,0,.09.08,2.1,2.1,0,0,0,1.38.35,2.27,2.27,0,0,0,1.64-.32l.17-.16C373.16,106.36,376.24,103.59,378.92,99.83Z"/><path class="cls-8" d="M382.51,86.55c2.15,1.54.55,7.48-3.59,13.28-2.68,3.76-5.76,6.53-8.18,7.6l-.17.16a2.27,2.27,0,0,1-1.64.32,2.1,2.1,0,0,1-1.38-.35.34.34,0,0,1-.09-.08c-2.43-1-5.54-3.85-8.24-7.66-4.11-5.82-5.7-11.77-3.54-13.29s7.24,2,11.35,7.77a33.49,33.49,0,0,1,2,3.26,33.29,33.29,0,0,1,2.06-3.28C375.27,88.48,380.36,85,382.51,86.55Z"/><path class="cls-4" d="M384.81,76.39H355A8.65,8.65,0,0,0,346.38,85v20.25a8.65,8.65,0,0,0,8.65,8.65h8.7v10.67l12.38-10.67h8.7a8.65,8.65,0,0,0,8.65-8.65V85A8.65,8.65,0,0,0,384.81,76.39Z"/><path class="cls-4" d="M382.51,86.55c-2.15-1.53-7.24,1.93-11.38,7.73a33.29,33.29,0,0,0-2.06,3.28,33.49,33.49,0,0,0-2-3.26c-4.11-5.82-9.19-9.3-11.35-7.77s-.57,7.47,3.54,13.29c2.7,3.81,5.81,6.61,8.24,7.66a.34.34,0,0,0,.09.08,2.1,2.1,0,0,0,1.38.35,2.27,2.27,0,0,0,1.64-.32l.17-.16c2.42-1.07,5.5-3.84,8.18-7.6C383.06,94,384.66,88.09,382.51,86.55Z"/><path class="cls-7" d="M114.78,349.56V364.4a6.34,6.34,0,0,0,6.34,6.34h6.37l9.07,7.81v-7.81h6.38a6.33,6.33,0,0,0,6.33-6.34V349.56a6.33,6.33,0,0,0-6.33-6.34H121.12A6.34,6.34,0,0,0,114.78,349.56Zm10.65,10.84c-3-4.25-4.2-8.6-2.63-9.73s5.31,1.41,8.34,5.66a24.86,24.86,0,0,1,1.51,2.4,25.07,25.07,0,0,1,1.49-2.38c3-4.27,6.74-6.82,8.32-5.7s.42,5.48-2.59,9.74c-2,2.79-4.26,4.84-6,5.61l-.06.06a1.56,1.56,0,0,1-1,.26,1.69,1.69,0,0,1-1.2-.24l-.12-.11A17,17,0,0,1,125.43,360.4Z"/><path class="cls-8" d="M122.8,350.67c-1.57,1.13-.39,5.48,2.63,9.73a17,17,0,0,0,6,5.57l.12.11a1.69,1.69,0,0,0,1.2.24,1.56,1.56,0,0,0,1-.26l.06-.06c1.78-.77,4.06-2.82,6-5.61,3-4.26,4.17-8.62,2.59-9.74s-5.3,1.43-8.32,5.7a25.07,25.07,0,0,0-1.49,2.38,24.86,24.86,0,0,0-1.51-2.4C128.11,352.08,124.38,349.55,122.8,350.67Z"/><path class="cls-4" d="M121.12,343.22h21.82a6.33,6.33,0,0,1,6.33,6.34V364.4a6.33,6.33,0,0,1-6.33,6.34h-6.38v7.81l-9.07-7.81h-6.37a6.34,6.34,0,0,1-6.34-6.34V349.56A6.34,6.34,0,0,1,121.12,343.22Z"/><path class="cls-4" d="M122.8,350.67c1.58-1.12,5.31,1.41,8.34,5.66a24.86,24.86,0,0,1,1.51,2.4,25.07,25.07,0,0,1,1.49-2.38c3-4.27,6.74-6.82,8.32-5.7s.42,5.48-2.59,9.74c-2,2.79-4.26,4.84-6,5.61l-.06.06a1.56,1.56,0,0,1-1,.26,1.69,1.69,0,0,1-1.2-.24l-.12-.11a17,17,0,0,1-6-5.57C122.41,356.15,121.23,351.8,122.8,350.67Z"/><path class="cls-7" d="M444.29,226.64V238a4.87,4.87,0,0,1-4.86,4.86h-4.9l-6.95,6v-6h-4.9a4.87,4.87,0,0,1-4.86-4.86V226.64a4.86,4.86,0,0,1,4.86-4.86h16.75A4.86,4.86,0,0,1,444.29,226.64ZM436.11,235c2.33-3.27,3.23-6.61,2-7.47s-4.07,1.08-6.4,4.34a21.15,21.15,0,0,0-1.15,1.84,19.51,19.51,0,0,0-1.15-1.82c-2.31-3.28-5.17-5.23-6.38-4.37s-.32,4.2,2,7.47a12.87,12.87,0,0,0,4.63,4.31l.05,0a1.19,1.19,0,0,0,.78.2,1.32,1.32,0,0,0,.92-.18l.09-.09A12.86,12.86,0,0,0,436.11,235Z"/><path class="cls-8" d="M438.13,227.49c1.21.86.31,4.2-2,7.47a12.86,12.86,0,0,1-4.6,4.27l-.09.09a1.32,1.32,0,0,1-.92.18,1.19,1.19,0,0,1-.78-.2l-.05,0A12.87,12.87,0,0,1,425,235c-2.31-3.27-3.2-6.62-2-7.47s4.07,1.09,6.38,4.37a19.51,19.51,0,0,1,1.15,1.82,21.15,21.15,0,0,1,1.15-1.84C434.06,228.57,436.92,226.63,438.13,227.49Z"/><path class="cls-4" d="M439.43,221.78H422.68a4.86,4.86,0,0,0-4.86,4.86V238a4.87,4.87,0,0,0,4.86,4.86h4.9v6l6.95-6h4.9a4.87,4.87,0,0,0,4.86-4.86V226.64A4.86,4.86,0,0,0,439.43,221.78Z"/><path class="cls-4" d="M438.13,227.49c-1.21-.86-4.07,1.08-6.4,4.34a21.15,21.15,0,0,0-1.15,1.84,19.51,19.51,0,0,0-1.15-1.82c-2.31-3.28-5.17-5.23-6.38-4.37s-.32,4.2,2,7.47a12.87,12.87,0,0,0,4.63,4.31l.05,0a1.19,1.19,0,0,0,.78.2,1.32,1.32,0,0,0,.92-.18l.09-.09a12.86,12.86,0,0,0,4.6-4.27C438.44,231.69,439.34,228.35,438.13,227.49Z"/></svg>