<svg id="레이어_1" data-name="레이어 1" xmlns="http://www.w3.org/2000/svg" viewBox="0 0 508.64 441.29"><defs><style>.cls-1{fill:#f2f2f2;}.cls-2,.cls-3{fill:none;stroke:#000;stroke-miterlimit:10;}.cls-3{stroke-width:5px;}.cls-4{fill:#e0e0e0;}.cls-5{fill:#ededed;}</style></defs><path d="M113.39,241.85c7.75-.26,0-38.2,0-38.2s-9.46-11.87,1.73,24.91C108.62,241.33,113.39,241.85,113.39,241.85Z"/><path d="M148,101.71c-.19-.11-1.72-1-4.27-2.37-17.15-13.92-23.55-74.58,15.59-68.85,26.47,3.89,34.07,25.17,36,40.54a63.12,63.12,0,0,0,.36,16.24A74.09,74.09,0,0,0,195.32,71c1.7-15.21,10.4-34.18,45.3-24,54.11,15.75,14.62,55,13.37,56.24.83-.59,21.72-15.06,37.08,1.63,15.68,17,17.52,29.34,6.92,51.15a38.93,38.93,0,0,1-2.4,4c-17.18,26.58-17.47,35.25-17.32,36.86a33.55,33.55,0,0,0-2-6.92c-10.57-25-21.17,18.06-21.17,18.06s0-17.81-4.9-28.39-10.33-3.61-32,2.51-37.16-13.35-58.9-15.41-36.43,47.48-36.43,47.48-2.47-33.55-17.56-19.61c0,0-28-7.74-31.63-24.77s27.87-16,27.87-16-54.71-16-34.06-52.13c17.3-30.28,62.16-9.8,76.22-2.38A13,13,0,0,0,148,101.71Z"/><path d="M266.53,197.2s5.36-8.65-3.26,30.52c-.66,3,1.61,11,1.61,11C253,233.59,266.53,197.2,266.53,197.2Z"/><path d="M240.62,207.78s-2.45,24.78-12.78,19.1-1.79-22.61-1.79-22.61A43.5,43.5,0,0,1,240.62,207.78Z"/><path class="cls-1" d="M224.23,334.34l-.25,0c-33.11,25.08-79.07-14.12-79.9-14.83a53.64,53.64,0,0,0-1-12.29c11.55,13.92,29.57,24.28,57.58,24.64a21.08,21.08,0,0,0,4.69-.46c4.48-1,13.12-3.92,22.11-12.86A24.82,24.82,0,0,0,224.23,334.34Z"/><path d="M178.09,211.56c.31,2,.83,13.64-10.25,15.71S159.52,208.6,159.6,208C167.59,207,174.93,210,178.09,211.56Z"/><path class="cls-2" d="M227.48,318.54C237.79,308.25,248.56,290,254,257.8a253.78,253.78,0,0,0,2.91-26"/><path class="cls-2" d="M143.07,307.26c11.55,13.92,29.57,24.28,57.58,24.64a21.08,21.08,0,0,0,4.69-.46c4.48-1,13.12-3.92,22.11-12.86"/><path class="cls-2" d="M123.2,231.78a133,133,0,0,0,1.45,31.72c2.33,14.14,7.46,30.55,18.42,43.75"/><path class="cls-2" d="M278.3,197.1a.16.16,0,0,1,0,.1c4.79,26.46-13.83,68.51-24.35,60.6h0"/><path class="cls-2" d="M124.65,263.5c-12,12.87-39.13-46.17-21.84-66.3a29.67,29.67,0,0,1,2.47-2.58c15.09-13.94,17.56,19.61,17.56,19.61s14.69-49.54,36.43-47.48,37.22,21.53,58.9,15.41,27.09-13.09,32-2.51,4.9,28.39,4.9,28.39,10.6-43.1,21.17-18.06a33.55,33.55,0,0,1,2,6.92"/><path class="cls-3" d="M143.07,198.49s14.45,6.71,40.26-3.87"/><path class="cls-3" d="M212,194.62s19.1-9.29,34.33-1.81"/><path class="cls-2" d="M207.84,199S196,220.69,218.43,250.1c0,0,6.67,10.21-8.11,9.45l-.54,0"/><path class="cls-2" d="M208,240.56s4.44,12.5,2.35,19c-.82,2.57-2.67,4.19-6.22,3.72-12.51-1.68-16.13.51-18.06.9s-9,.13-3.49-15c0,0,2.22-4.64,7.31-4.26"/><path class="cls-2" d="M179.72,212.43s-.59-.36-1.63-.87C174.93,210,167.59,207,159.6,208c-6.28.79-13,4.06-18.34,12.48"/><path class="cls-2" d="M159.6,208h0c-.08.61-2.69,21.31,8.24,19.28s10.56-13.71,10.25-15.71h0"/><path class="cls-2" d="M226.05,204.27c-14.55-.69-20.79,8.67-20.79,8.67"/><path class="cls-2" d="M226.05,204.27s-8.53,16.93,1.79,22.61,12.78-19.1,12.78-19.1A43.5,43.5,0,0,0,226.05,204.27Z"/><path class="cls-2" d="M165,284.43s42.58-4.65,56,0c0,0,4.9-13.42-35.1-7"/><path class="cls-2" d="M181.52,291.14s10.58,14.19,33.29,0"/><path class="cls-2" d="M143.07,307.25h0a53.64,53.64,0,0,1,1,12.29c-.38,14.18-6.17,36.48-37.18,43.77-13,3.07-30.5,3.5-53.89-.44,0,0-33-6.19-40.26,48.51"/><path class="cls-2" d="M227.49,318.52v0l0,0a24.82,24.82,0,0,0-3.22,15.76c1.14,7.27,6.44,15.64,22.07,21.91,13.75,5.51,35.49,9.4,69.42,9.48,0,0,39.22,1.28,42.32,63.21"/><path class="cls-2" d="M246.3,356.25s-40.08,113.33-139.4,7.08"/><path class="cls-2" d="M254,103.27l0,0c.83-.59,21.72-15.06,37.08,1.63,15.68,17,17.52,29.34,6.92,51.15a38.93,38.93,0,0,1-2.4,4c-17.18,26.58-17.47,35.25-17.32,36.86,0,.09,0,.15,0,.2a.65.65,0,0,0,0,.1"/><path class="cls-2" d="M195.32,71c1.7-15.21,10.4-34.18,45.3-24,54.11,15.75,14.62,55,13.37,56.24"/><path class="cls-2" d="M195.32,71a74.09,74.09,0,0,1,.36,16.24A63.12,63.12,0,0,1,195.32,71Z"/><path class="cls-2" d="M148,101.72h0a13,13,0,0,1-4.27-2.37c-17.15-13.92-23.55-74.58,15.59-68.85,26.47,3.89,34.07,25.17,36,40.54"/><path class="cls-2" d="M105.28,194.62s-28-7.74-31.63-24.77,27.87-16,27.87-16-54.71-16-34.06-52.13c17.3-30.28,62.16-9.8,76.22-2.38,2.55,1.34,4.08,2.26,4.27,2.37"/><path class="cls-4" d="M391.5,118.29s29.21,8.61,30.65-22c0,0,24.14-14.51,46.91,5.82,0,0-13.26,18.88-15.53,19.1s-8.4-.89-8.4-.89,27.61,31.85,32.06,32.26c0,0-34.69,31.53-64.88,33.6l-11.46-37.33-3,16-21.39,3.69S368.62,127.47,391.5,118.29Z"/><path class="cls-2" d="M385.88,119.78s31,9.15,32.56-23.4c0,0,25.66-15.41,49.85,6.19,0,0-14.09,20.05-16.5,20.29s-8.93-1-8.93-1,29.33,33.84,34.07,34.28c0,0-36.86,33.5-68.94,35.71l-12.18-39.67-3.21,17-22.73,3.92S361.57,129.53,385.88,119.78Z"/><path class="cls-5" d="M375.8,231.7l-59.06,92.86s27,17.17,29.23,13.81,39.18-58.69,41.87-62.82-9.34,75.46-7,76.32,32.37,4.51,32.37,4.51L426.4,248Z"/><polyline class="cls-5" points="375.8 231.7 377.02 228.2 427.61 244.19 426.4 248.02"/><path class="cls-5" d="M399.26,241s-3.64,9.34-3.47,18.49"/><path class="cls-5" d="M422,259.37c-6.22-3.65-4.8-9-4.8-9l1.48.29a7,7,0,0,0,4.17,7.31Z"/><path class="cls-5" d="M370.32,242.52A8.41,8.41,0,0,0,379.2,238l-1.3-.77a8.73,8.73,0,0,1-6.94,4.19Z"/><path class="cls-2" d="M370.89,233l-59.06,92.86s27,17.17,29.24,13.81,39.18-58.69,41.86-62.82-9.34,75.46-7,76.32,32.38,4.51,32.38,4.51l13.17-108.36Z"/><polyline class="cls-2" points="370.89 233.03 372.12 229.53 422.71 245.53 421.49 249.35"/><path class="cls-2" d="M394.36,242.28s-3.64,9.34-3.48,18.49"/><path class="cls-2" d="M417.09,260.71c-6.22-3.66-4.8-9-4.8-9l1.49.29a7,7,0,0,0,4.16,7.31Z"/><path class="cls-2" d="M365.42,243.85a8.39,8.39,0,0,0,8.87-4.51l-1.3-.77a8.73,8.73,0,0,1-6.94,4.19Z"/><path d="M334.11,112.12l10.67-3.26C335.47,89,363.61,41.23,329.27,45.64S314,78.86,314,78.86l8.54-3.74s-7.61-16.43,8.35-14.56c0,0,7.23,1.06,2.72,19a60.17,60.17,0,0,0,.83,32.51"/><circle cx="343.01" cy="120.97" r="6.41"/></svg>