<svg id="레이어_1" data-name="레이어 1" xmlns="http://www.w3.org/2000/svg" viewBox="0 0 508.64 441.29"><defs><style>.cls-1{fill:#e8e8e8;}.cls-2,.cls-7{fill:#fff;}.cls-3{fill:#020202;}.cls-11,.cls-12,.cls-4,.cls-5,.cls-6{fill:none;}.cls-11,.cls-12,.cls-4,.cls-5,.cls-6,.cls-7{stroke:#000;}.cls-11,.cls-12,.cls-4,.cls-6,.cls-7{stroke-miterlimit:10;}.cls-11,.cls-12,.cls-5,.cls-6{stroke-linecap:round;}.cls-5{stroke-linejoin:round;stroke-width:0.5px;}.cls-6{stroke-width:4px;}.cls-7{stroke-width:2px;}.cls-8{fill:#fff41f;}.cls-9{fill:#c6c6c6;}.cls-10{fill:#919191;}.cls-11{stroke-width:3px;}.cls-13{fill:#e0e0e0;}</style></defs><path class="cls-1" d="M132.43,73.24s-12.32-1.46-13.06,14.36l5.8,2.67-1,9.35s23.12,2.24,25-2.17C148.41,93,146.54,85,146.54,85l2.19,2.74,5.83-7.7S146.33,68.75,132.43,73.24Z"/><path class="cls-2" d="M149.4,109.89a8.07,8.07,0,0,0,1.78,2.23.25.25,0,0,1-.1.44c-1.16.23-1.89-1.48-1.89-1.48.27,1.69.75,2.09.75,2.09-1.14.82-2-3.27-2.08-3.74v0l-.17-1.74a4.92,4.92,0,0,0,2.35-4.5c2.36-3.51,5.88-7.85,7.49-9.79a1.31,1.31,0,0,0-.19-1.87l-4.47-4.55,1.94-2.71c.19.17,7,6.29,5.27,9.82s-7.48,9.67-9.79,13.6l-.32.54c.71.49,2.2,1.12,1.89,1.47s-2-.35-2-.35c1,1.45,3.32,1.28,2.36,2S149.5,110,149.4,109.89Z"/><path d="M128.12,59.27c-1.29.47-2.7.45-3.32-1.33-1.25-3.56,1.89-4.91,3.55-5.44-1.46-.89-2.21-2.4-1.71-3.64.58-1.43,2.63-2,4.58-1.17a4.48,4.48,0,0,1,2.27,1.93h0a3.75,3.75,0,0,1-.23-3.18c.84-2.09,3.57-2.95,6.08-1.93s3.88,3.54,3,5.62l0,0a5.13,5.13,0,0,1,6.29-1.63c2.71,1.1,4.13,3.9,3.18,6.26a4.12,4.12,0,0,1-1.26,1.67,6.68,6.68,0,0,1,4.74.19c3,1.22,4.68,4.12,3.73,6.48a4.63,4.63,0,0,1-4.55,2.59,6.31,6.31,0,0,1,4.63,6,6.43,6.43,0,0,1-6.61,6.24,5.53,5.53,0,0,1-.71,0,6.81,6.81,0,0,1-2.67-.85,4.14,4.14,0,0,1-8.09-.24A3.4,3.4,0,0,1,138.55,75a3.33,3.33,0,0,1-.4-1.6,3.41,3.41,0,0,1,.58-1.9,4.48,4.48,0,0,1-1.29-2.06,4.66,4.66,0,0,1-.19-1.31A4.45,4.45,0,0,1,139.83,64c-2-.08-3.66-1.89-4-4.24h0a5.73,5.73,0,0,1-.06-.84c0-.14,0-.27,0-.4a5.58,5.58,0,0,1,1.25-3.26,5.61,5.61,0,0,1-4.51,1.58c-1.47-.29-1.8.06-1.84.39a1.3,1.3,0,0,1-.61.95A8.7,8.7,0,0,1,128.12,59.27Z"/><path class="cls-2" d="M152.56,154.65l-3.77.57L144,156l-5.5-30-.67-13.31-1.94,13.5,4.45,30.49-3.05.27-3.92.35-4.42.39s-1.51-27.35-1.74-32.27c-.22-4.58,2.22-21.66,2.56-24a85.79,85.79,0,0,0,10.28.45l1.45,3.5h0l-1.1.49s3,4.15,6.3,2.43a9.44,9.44,0,0,0,1-.6l.17,1.74v0l1.44,14.64,7.38,30Z"/><path d="M154.72,165.09l-1.29.32s.4-2.45-1.81-2.6-2.07,3.14-2.07,3.14-8.79,2.76-9.27.87a4.64,4.64,0,0,1-.09-.46,2.48,2.48,0,0,1,.77-2.29l3-.71c5-.5,4.85-6.89,4.78-8.14l3.77-.57C153.46,158.5,154.72,165.09,154.72,165.09Z"/><path d="M150,103.15a4.92,4.92,0,0,1-2.35,4.5h0A13.87,13.87,0,0,1,150,103.15Z"/><path d="M149.75,101.7a6.78,6.78,0,0,1,.29,1.45,13.87,13.87,0,0,0-2.35,4.5l-.48-4.84,1.44-.63Z"/><path d="M149.28,100.52l.47,1.18-1.1.48-.57-1.31C148.49,100.77,148.89,100.65,149.28,100.52Z"/><path d="M147.69,107.65h0a9.44,9.44,0,0,1-1,.6c-3.29,1.72-6.3-2.43-6.3-2.43l1.1-.49,1.57-.69,4.15-1.83Z"/><path d="M143,104.58l0,.06-1.57.69h0l-1.45-3.5c.61,0,1.21,0,1.82-.08Z"/><path d="M130.65,74.58l11.21,27.16c-.61,0-1.21.06-1.82.08l-11.1-26.76h0a13.13,13.13,0,0,1,1.71-.48Z"/><path d="M139.47,167.48l-1.33.33s.42-2.51-1.85-2.67-2.14,3.23-2.14,3.23-9,2.83-9.52.89a2.65,2.65,0,0,1,.7-2.83l3.13-.73c5.24-.52,5-7.43,4.9-8.45l3.92-.35c.71,3,1.61,7.59,2,9.58Z"/><path class="cls-2" d="M138.73,71.5a3.41,3.41,0,0,0-.58,1.9,3.33,3.33,0,0,0,.4,1.6,3.06,3.06,0,0,1-4.81-.71V70.46a9.5,9.5,0,0,0,2.32-.51l1.38-.51h0A4.48,4.48,0,0,0,138.73,71.5Z"/><path class="cls-2" d="M133.2,60.57c0,.09-.08,1.2.78,1.13s.92-1.65.48-1.8h0a2,2,0,0,1,.59,0l.8-.13h0c.32,2.35,2,4.16,4,4.24a4.45,4.45,0,0,0-2.58,4.09,4.66,4.66,0,0,0,.19,1.31h0l-1.38.51a9.5,9.5,0,0,1-2.32.51c-4.93.4-5.77-4.78-5.78-8.34h1c0,.47.36,1,.9.77s.42-1.08.32-1.5a4.58,4.58,0,0,1,.49,0l.9.15a4.25,4.25,0,0,0-.19-1.27c-.4-.87-2.8-.29-2.8-.29l-.5,0c0-.26,0-.48.06-.65a8.7,8.7,0,0,0,2-1.05,1.3,1.3,0,0,0,.61-.95c0-.33.37-.68,1.84-.39a5.61,5.61,0,0,0,4.51-1.58,5.58,5.58,0,0,0-1.25,3.26l-.76,0a2.06,2.06,0,0,0-2.14.86l.6.88a1.5,1.5,0,0,0-.31.31Z"/><path class="cls-3" d="M134.46,59.9c.44.15.4,1.73-.48,1.8s-.79-1-.78-1.13h0a1.5,1.5,0,0,1,.31-.31,1.65,1.65,0,0,1,1-.36Z"/><path class="cls-2" d="M130.16,61.38c-.42,0-1,.1-1.13.37a.69.69,0,0,0-.09.36h-1c0-.87,0-1.63.1-2.2l.5,0s2.4-.58,2.8.29a4.25,4.25,0,0,1,.19,1.27l-.9-.15A4.58,4.58,0,0,0,130.16,61.38Z"/><path class="cls-3" d="M130.16,61.38c.1.42.21,1.25-.32,1.5s-.9-.3-.9-.77a.69.69,0,0,1,.09-.36C129.2,61.48,129.74,61.4,130.16,61.38Z"/><path class="cls-2" d="M123.13,120.92c-.79,4.72-.76,3.41-1.06,3.39s.09-3.36.1-3.49l-.16.45c-.26.89-1,2.53-1.19,2.22s1-4.55,1-4.55c-1.12,1.77-3.44,1.26-2.28.75s2.56-3.14,2.56-3.14c.58-4.49,0-27.23,0-27.23l2.92,1.34h0s0,4.87-.08,10.44c-.08,7.36-.23,15.93-.46,16.1l.71,2.6s.07,3.11-.55,3.65-.45-3.31-.44-3.84c0,.53-.29,4.45-.5,4.32S123.15,123.1,123.13,120.92Z"/><path class="cls-4" d="M128.17,58.9s0,.13,0,.37,0,.39-.06.65c-.05.57-.1,1.33-.1,2.2,0,3.56.85,8.74,5.78,8.34a9.5,9.5,0,0,0,2.32-.51l1.38-.51"/><path class="cls-4" d="M128.56,60s2.4-.58,2.8.29a4.25,4.25,0,0,1,.19,1.27c0,1.17,0,2.58.3,2.53s1.17-.07,1.21-.58"/><path class="cls-4" d="M132.91,59.38a2.06,2.06,0,0,1,2.14-.86"/><path class="cls-4" d="M133.2,60.57a1.5,1.5,0,0,1,.31-.31,1.65,1.65,0,0,1,1-.36,2,2,0,0,1,.59,0"/><path class="cls-4" d="M133.06,60.8a1.08,1.08,0,0,1,.14-.23"/><path class="cls-4" d="M133.2,60.57h0c0,.09-.08,1.2.78,1.13s.92-1.65.48-1.8"/><path class="cls-4" d="M130.65,61.37a4.58,4.58,0,0,0-.49,0c-.42,0-1,.1-1.13.37a.69.69,0,0,0-.09.36c0,.47.36,1,.9.77s.42-1.08.32-1.5a1.67,1.67,0,0,0-.09-.25"/><path class="cls-4" d="M135.79,65.19A9.09,9.09,0,0,1,131.37,67a1.54,1.54,0,0,1,1.36-1c1.07-.07.58-.77,1.12-.54"/><path class="cls-4" d="M132.55,67.53a3.09,3.09,0,0,0,2.75-.78"/><path class="cls-4" d="M133.74,74.29a12.33,12.33,0,0,0-3.09.29,13.13,13.13,0,0,0-1.71.48c-3.62,1.3-8,4.7-8.26,13.59l1.45.67,2.92,1.34,1.44.66"/><path class="cls-4" d="M138.69,74.88l-.14.12a3.06,3.06,0,0,1-4.81-.71V70.46"/><path class="cls-4" d="M142.38,50.13c.84-2.08-.52-4.6-3-5.62s-5.24-.16-6.08,1.93a3.75,3.75,0,0,0,.23,3.18,5.21,5.21,0,0,0,1.37,1.61"/><path class="cls-4" d="M137.08,55.29h0a5.58,5.58,0,0,0-1.25,3.26c0,.13,0,.26,0,.4a5.73,5.73,0,0,0,.06.84h0c.32,2.35,2,4.16,4,4.24a4.45,4.45,0,0,0-2.58,4.09,4.66,4.66,0,0,0,.19,1.31,4.48,4.48,0,0,0,1.29,2.06,3.41,3.41,0,0,0-.58,1.9,3.33,3.33,0,0,0,.4,1.6,3.4,3.4,0,0,0,2.55,1.78,4.14,4.14,0,0,0,8.09.24,6.81,6.81,0,0,0,2.67.85,5.53,5.53,0,0,0,.71,0,6.43,6.43,0,0,0,6.61-6.24,6.31,6.31,0,0,0-4.63-6,4.63,4.63,0,0,0,4.55-2.59c1-2.36-.72-5.26-3.73-6.48a6.68,6.68,0,0,0-4.74-.19,4.12,4.12,0,0,0,1.26-1.67c1-2.36-.47-5.16-3.18-6.26a5.13,5.13,0,0,0-6.29,1.63,4.14,4.14,0,0,0-.29.55"/><path class="cls-4" d="M133.83,51.16a2.61,2.61,0,0,0-.34-1.54,4.48,4.48,0,0,0-2.27-1.93c-1.95-.79-4-.26-4.58,1.17-.5,1.24.25,2.75,1.71,3.64-1.66.53-4.8,1.88-3.55,5.44.62,1.78,2,1.8,3.32,1.33a8.7,8.7,0,0,0,2-1.05,1.3,1.3,0,0,0,.61-.95c0-.33.37-.68,1.84-.39a5.61,5.61,0,0,0,4.51-1.58"/><path class="cls-4" d="M147.69,87.53a8.07,8.07,0,0,0-1.53-1.86"/><path class="cls-4" d="M151.85,77.87h0C152,78,156.34,82,156,82.49l-1.19,1.74-1.94,2.71c-1.31,1.76-2.59,3.36-2.92,3.27a11.71,11.71,0,0,1-2.25-2.67"/><path class="cls-4" d="M126,83.55s.77-.37.54,7.77c-.07,2.39-.23,5.51-.52,9.59a1.36,1.36,0,0,1,0,.2"/><path class="cls-4" d="M126,100.91c.09,0,1.56.24,3.79.46a85.79,85.79,0,0,0,10.28.45c.61,0,1.21,0,1.82-.08a35.06,35.06,0,0,0,5.19-.64c.35-.06.69-.14,1-.23s.81-.22,1.2-.35l.67-.23c.25-.09-2.18-12.39-2.25-12.75h0"/><path class="cls-5" d="M126,100.91h0"/><path class="cls-4" d="M129.8,101.11s0,.09,0,.26c-.34,2.34-2.78,19.42-2.56,24,.23,4.92,1.74,32.27,1.74,32.27l4.42-.39,3.92-.35,3.05-.27-4.45-30.49,1.94-13.5.67,13.31,5.5,30,4.8-.73,3.77-.57,4.12-.63"/><polyline class="cls-4" points="147.86 109.43 149.3 124.07 156.68 154.02"/><polyline class="cls-4" points="147.04 101.11 147.21 102.81 147.69 107.65 147.69 107.65 147.86 109.39"/><path class="cls-4" d="M133.35,157.12a.73.73,0,0,1,0,.13c.07,1,.34,7.93-4.9,8.45l-3.13.73a2.65,2.65,0,0,0-.7,2.83c.49,1.94,9.52-.89,9.52-.89s-.14-3.39,2.14-3.23,1.85,2.67,1.85,2.67l1.33-.33-.19-1c-.39-2-1.29-6.55-2-9.58a1.16,1.16,0,0,0,0-.18"/><path class="cls-4" d="M148.77,155s0,.08,0,.21c.07,1.25.19,7.64-4.78,8.14l-3,.71a2.48,2.48,0,0,0-.77,2.29,4.64,4.64,0,0,0,.09.46c.48,1.89,9.27-.87,9.27-.87s-.14-3.3,2.07-3.14,1.81,2.6,1.81,2.6l1.29-.32s-1.26-6.59-2.16-10.44a0,0,0,0,0,0,0"/><path class="cls-4" d="M152.87,86.94l4.47,4.55a1.31,1.31,0,0,1,.19,1.87c-1.61,1.94-5.13,6.28-7.49,9.79a13.87,13.87,0,0,0-2.35,4.5"/><path class="cls-4" d="M149.4,109.89c.1.11,1.85,2,2.79,1.39s-1.36-.52-2.36-2c0,0,1.73.69,2,.35s-1.18-1-1.89-1.47l.32-.54c2.31-3.93,8.05-10,9.79-13.6s-5.08-9.65-5.27-9.82h0"/><path class="cls-4" d="M147.86,109.39v0c.1.47.94,4.56,2.08,3.74,0,0-.48-.4-.75-2.09,0,0,.73,1.71,1.89,1.48a.25.25,0,0,0,.1-.44,8.07,8.07,0,0,1-1.78-2.23h0"/><line class="cls-4" x1="122.17" y1="120.81" x2="122.31" y2="120.43"/><path class="cls-4" d="M122.13,89.32s.58,22.74,0,27.23c0,0-1.4,2.64-2.56,3.14s1.16,1,2.28-.75c0,0-1.34,4.16-1,4.55s.93-1.33,1.19-2.22l.16-.45"/><path class="cls-4" d="M124.24,119.55a.18.18,0,0,1,0,0h0c0,.53-.29,4.45-.5,4.32s-.58-.83-.6-3c0-.36,0-.77,0-1.23"/><path class="cls-4" d="M125.05,90.66s0,4.87-.08,10.44c-.08,7.36-.23,15.93-.46,16.1l.71,2.6s.07,3.11-.55,3.65-.45-3.31-.44-3.84"/><path class="cls-4" d="M122.17,120.81h0c0,.13-.4,3.48-.1,3.49s.27,1.33,1.06-3.39"/><polyline class="cls-4" points="130.65 74.58 141.86 101.74 143.03 104.58"/><polyline class="cls-4" points="128.94 75.06 140.04 101.82 141.49 105.32"/><path class="cls-4" d="M149.28,100.52l.47,1.18-1.1.48-1.44.63-4.15,1.83-1.57.69-1.1.49s3,4.15,6.3,2.43a9.44,9.44,0,0,0,1-.6,4.92,4.92,0,0,0,2.35-4.5,6.78,6.78,0,0,0-.29-1.45"/><line class="cls-4" x1="148.08" y1="100.87" x2="148.65" y2="102.18"/><path d="M193,188.42c.28,13.65-11.12,14.28-11.12,14.28s-57.14,3.19-75.23,6.36-18.89-23.5-18.89-23.5V29.38s.87-29.64,79-25.55a23.63,23.63,0,0,1,10.7,3.23C207.54,24.69,189.34,45.86,193,188.42Zm-7.63-10.16s6-142.86,0-150.79c-5.05-6.64-65.6-.59-85.09,1.55a6.74,6.74,0,0,0-6,6.7v140a6.8,6.8,0,0,0,7.15,6.8Zm-34.12,15.08a8.42,8.42,0,1,0-8.41,8.41A8.4,8.4,0,0,0,151.21,193.34Z"/><path class="cls-4" d="M193,188.42C189.34,45.86,207.54,24.69,177.44,7.06a23.63,23.63,0,0,0-10.7-3.23c-78.15-4.09-79,25.55-79,25.55V185.56s.79,26.67,18.89,23.5,75.23-6.36,75.23-6.36S193.24,202.07,193,188.42Z"/><path class="cls-4" d="M94.23,35.72v140a6.8,6.8,0,0,0,7.15,6.8l84-4.25s6-142.86,0-150.79c-5.05-6.64-65.6-.59-85.09,1.55A6.74,6.74,0,0,0,94.23,35.72Z"/><circle class="cls-4" cx="142.8" cy="193.34" r="8.41"/><path class="cls-2" d="M76.84,168.51c0,1.48-.68,7.73,4.46,8.11,7.64.57,2.43-10.67,2.43-10.67C81.48,165.69,79.09,166.8,76.84,168.51ZM61.1,193.38c-7.05,1.11-23.46-6.5-26.08-13.67-3.09-8.46,7.61-7.39,7.61-7.39,11.51,10.14,27.77,18.36,18.49,11.93-11-7.63-8.52-26.14-8.52-26.14h0a49.36,49.36,0,0,1,24.16-17.3c1.32,7.39,7.8,31,35.88,21.08,0,0,3.56-.92,3.17,1.31s-12.76,15.24-6.57,21.11c.72.69,1.48,1.44,2.26,2.23.54.54,1.09,1.1,1.64,1.68h0c5.34,5.68,10.73,12.78,10.17,17.11-.7,5.41-1.9,14-23.4,19.56-8.94,14.39-6.47,30.62-5.7,34.47-5-8.84-16.15-21.25-39.4-21.92l-1.34,0h0c8-4.1,6.34-21.31,6.29-21.79a22.34,22.34,0,0,1,2.64-.71h0a1.44,1.44,0,0,0,.47-.06c4.2-1.22-1.76-21.36-1.76-21.36Zm-3.35-6c.41-.09-4.85-1.13-7.38-3a7.28,7.28,0,0,1-2.83-4.69c-1.85-2-5.1-1.44-5.1-1.44S49.18,189.46,57.75,187.39Z"/><path d="M59.76,215.62c-4.42,1.34-11.42,3.5-21.65-1.68C23.48,206.52,23.88,198.47,8,175.38s11.8-33.2,11.8-33.2h0c-2-11.87,5.67-25.2,14.58-27.2,12-2.68,9.07-11.14,19-13.41S66,110.23,66,110.23c13.19-16.08,14.84,3.93,14.84,3.93s1,3.5,10.1,2.06,23.71,18.14-5.16,22.46a55.89,55.89,0,0,0-9,2.12A49.36,49.36,0,0,0,52.6,158.1h0s-2.48,18.51,8.52,26.14c9.28,6.43-7-1.79-18.49-11.93,0,0-10.7-1.07-7.61,7.39,2.62,7.17,19,14.78,26.08,13.67l0,.11s6,20.14,1.76,21.36l-.47.06h0A22.34,22.34,0,0,0,59.76,215.62Z"/><path d="M83.73,166s5.21,11.24-2.43,10.67c-5.14-.38-4.47-6.63-4.46-8.11C79.09,166.8,81.48,165.69,83.73,166Z"/><path d="M50.37,184.4c2.53,1.86,7.79,2.9,7.38,3-8.57,2.07-15.31-9.12-15.31-9.12s3.25-.53,5.1,1.44A7.28,7.28,0,0,0,50.37,184.4Z"/><path class="cls-4" d="M113.14,188.22c5.34,5.68,10.73,12.78,10.17,17.11-.7,5.41-1.9,14-23.4,19.56-8.94,14.39-6.47,30.62-5.7,34.47.11.56.18.86.18.86"/><path class="cls-4" d="M76.46,138.68s.07.8.3,2.12c1.32,7.39,7.8,31,35.88,21.08,0,0,3.56-.92,3.17,1.31s-12.76,15.24-6.57,21.11c.72.69,1.48,1.44,2.26,2.23.54.54,1.09,1.1,1.64,1.68"/><path class="cls-4" d="M97.9,268.16a36.52,36.52,0,0,0-3.69-8.8c-5-8.84-16.15-21.25-39.4-21.92l-1.34,0C18.29,237.06,9,262.59,9,262.59"/><path class="cls-4" d="M47.6,166.52a40.17,40.17,0,0,1,5-8.42,49.36,49.36,0,0,1,24.16-17.3,55.89,55.89,0,0,1,9-2.12c28.87-4.32,14.23-23.91,5.16-22.46s-10.1-2.06-10.1-2.06-1.65-20-14.84-3.93c0,0-2.69-10.92-12.58-8.66s-7,10.73-19,13.41c-8.91,2-16.56,15.33-14.58,27.2a19.9,19.9,0,0,0,5.72,11.15"/><path class="cls-4" d="M62.41,214.91l.47-.06a2.73,2.73,0,0,1,1.2.12"/><path class="cls-4" d="M19.81,142.18S-7.86,152.3,8,175.38s15.47,31.14,30.1,38.56c10.23,5.18,17.23,3,21.65,1.68a22.34,22.34,0,0,1,2.64-.71"/><path class="cls-4" d="M52.6,158.11s-2.48,18.51,8.52,26.14c9.28,6.43-7-1.79-18.49-11.93a56.1,56.1,0,0,1-5.76-5.8"/><path class="cls-4" d="M42.63,172.32s-10.7-1.07-7.61,7.39c2.62,7.17,19,14.78,26.08,13.67a3.88,3.88,0,0,0,2.77-1.5"/><path class="cls-4" d="M61.12,193.49s6,20.14,1.76,21.36a1.44,1.44,0,0,1-.47.06h0"/><path class="cls-4" d="M59.76,215.61h0c.05.48,1.74,17.69-6.29,21.79"/><path class="cls-4" d="M57.75,187.39c-8.57,2.07-15.31-9.12-15.31-9.12s3.25-.53,5.1,1.44a7.28,7.28,0,0,0,2.83,4.69C52.9,186.26,58.16,187.3,57.75,187.39Z"/><path class="cls-6" d="M64.08,171.41S70,155.85,76.72,155.85"/><path class="cls-4" d="M76.84,168.51c0-.29,0-.4-.12-.24"/><path class="cls-4" d="M76.84,168.51c2.25-1.71,4.64-2.82,6.89-2.56,0,0,5.21,11.24-2.43,10.67C76.16,176.24,76.83,170,76.84,168.51Z"/><path class="cls-4" d="M67.18,180.7c.18-1.19,4.54-8.27,9.66-12.19"/><path class="cls-4" d="M100.66,175.49s3.17-2.17,4.71-1.39"/><path class="cls-4" d="M113.14,188.21h0c0,.28.12,7.3-14.73,11.23"/><path class="cls-4" d="M113.14,193.54s-2.2,6.11-6.84,5.91"/><path class="cls-4" d="M111.51,186.52h0c-.24.16-4.9,3.3-7.1,7"/><path class="cls-7" d="M33.59,240.48S58.38,258,87.72,250.7"/><path class="cls-7" d="M15.27,252.78S57.92,277,94.39,260.22"/><path d="M340.21,293.79a9.48,9.48,0,0,1-7.36-2.9s-4.27-7.68,5.1-10.54c-.86.23-17.28,4.62-10.49-9.13,7-14.12,59.15-14,90.79,10.27s37.36,86.4,4.85,92.53c-5.29,1-9.84,1.8-13.8,2.42-20.34,3.19-24.93,1.71-33.25-1.43-12.36-4.66,9.51-86.13,1.14-83.26-31.52,10.81-17.25-7.93-16.57-8.8C360,283.58,349.27,293.58,340.21,293.79Z"/><path class="cls-2" d="M327.47,351.42v-.35h0a112.61,112.61,0,0,1,1.82-17.61c-11.55,2.57-10.49-6.21-10.49-6.21s17.76-6.4,17.12-17.31a27.22,27.22,0,0,1,4.29-16.14c9.06-.21,19.74-10.21,20.41-10.84-.68.87-14.95,19.61,16.57,8.8,8.37-2.87-13.5,78.6-1.14,83.26,8.32,3.14,12.91,4.62,33.25,1.43-.22.58-7,18.53,6,29.92-46,35.91-56.39,1.31-56.39,1.31,17-20.68,5-29.95,5-29.95C332.1,394.13,327.13,370,327.47,351.42Zm25.45-33,3.92-5.14h-6.47L346.72,308l-2,6.14L338.53,316l5.23,3.8-.16,6.45,5.22-3.8,6.1,2.15Z"/><polygon class="cls-8" points="356.84 313.32 352.92 318.46 354.92 324.6 348.82 322.45 343.6 326.25 343.75 319.8 338.53 316 344.72 314.16 346.72 308.02 350.37 313.33 356.84 313.32"/><path class="cls-9" d="M311.47,275.48v15.21A6.52,6.52,0,0,1,305,297.2h-6.54v8l-9.31-8h-6.54a6.51,6.51,0,0,1-6.5-6.51V275.48a6.5,6.5,0,0,1,6.5-6.51H305A6.5,6.5,0,0,1,311.47,275.48Zm-9.66,11.1c3.09-4.37,4.29-8.85,2.66-10s-5.43,1.47-8.53,5.84a24.52,24.52,0,0,0-1.53,2.45,26.26,26.26,0,0,0-1.55-2.47c-3.11-4.35-6.94-7-8.55-5.8s-.41,5.62,2.69,10a17.16,17.16,0,0,0,6.16,5.71l.12.13a1.78,1.78,0,0,0,1.23.24,1.74,1.74,0,0,0,1.05-.27l.05-.06C297.45,291.55,299.79,289.45,301.81,286.58Z"/><path class="cls-10" d="M304.47,276.59c1.63,1.14.43,5.62-2.66,10-2,2.87-4.36,5-6.2,5.76l-.05.06a1.74,1.74,0,0,1-1.05.27,1.78,1.78,0,0,1-1.23-.24l-.12-.13a17.16,17.16,0,0,1-6.16-5.71c-3.1-4.36-4.32-8.83-2.69-10s5.44,1.45,8.55,5.8a26.26,26.26,0,0,1,1.55,2.47,24.52,24.52,0,0,1,1.53-2.45C299,278.06,302.85,275.44,304.47,276.59Z"/><path class="cls-4" d="M282.57,269H305a6.5,6.5,0,0,1,6.51,6.51v15.21A6.52,6.52,0,0,1,305,297.2h-6.54v8l-9.31-8h-6.54a6.51,6.51,0,0,1-6.5-6.51V275.48A6.5,6.5,0,0,1,282.57,269Z"/><path class="cls-4" d="M284.31,276.61c1.61-1.16,5.44,1.45,8.55,5.8a26.26,26.26,0,0,1,1.55,2.47,24.52,24.52,0,0,1,1.53-2.45c3.1-4.37,6.91-7,8.53-5.84s.43,5.62-2.66,10c-2,2.87-4.36,5-6.2,5.76l-.05.06a1.74,1.74,0,0,1-1.05.27,1.78,1.78,0,0,1-1.23-.24l-.12-.13a17.16,17.16,0,0,1-6.16-5.71C283.9,282.23,282.68,277.76,284.31,276.61Z"/><path class="cls-4" d="M327.47,351.07v.35c-.34,18.57,4.63,42.71,36.46,26.3,0,0,12,9.27-5,29.95,0,0,10.35,34.6,56.39-1.31l.35-.26"/><path class="cls-4" d="M341.69,291.75a19,19,0,0,0-1.48,2,27.22,27.22,0,0,0-4.29,16.14c.64,10.91-17.12,17.31-17.12,17.31s-1.06,8.78,10.49,6.21a112.61,112.61,0,0,0-1.82,17.61"/><path class="cls-4" d="M355.17,347.57c-21,12.59-27.48,4.16-27.7,3.85h0a.7.7,0,0,1,0-.34h0c.22-.95,2.11-3.42,15.93-2.63"/><path class="cls-4" d="M329,358.79s11.18,3.6,14.86-1.81"/><path class="cls-11" d="M339.69,303.86s7.41-7,21,0"/><path class="cls-12" d="M360.65,282.91h0l0,0c-.68.87-14.95,19.61,16.57,8.8,8.37-2.87-13.5,78.6-1.14,83.26,8.32,3.14,12.91,4.62,33.25,1.43,4-.62,8.51-1.43,13.8-2.42,32.51-6.13,26.81-68.3-4.85-92.53s-83.83-24.39-90.79-10.27c-6.79,13.75,9.63,9.36,10.49,9.13"/><path class="cls-12" d="M338,280.34h0c-9.37,2.86-5.1,10.54-5.1,10.54a9.48,9.48,0,0,0,7.36,2.9c9.06-.21,19.74-10.21,20.41-10.84"/><polygon class="cls-12" points="354.92 324.6 348.82 322.45 343.6 326.25 343.75 319.8 338.53 316 344.72 314.16 346.72 308.02 350.37 313.33 356.84 313.32 352.92 318.46 354.92 324.6"/><path class="cls-4" d="M415.69,406.67c-.12-.1-.24-.2-.35-.31-13-11.39-6.26-29.34-6-29.92h0"/><path class="cls-4" d="M415.69,406.1S453.12,404,464.45,440"/><path class="cls-4" d="M359,407.67s-40.15,2.13-51.26,31"/><path class="cls-4" d="M444.91,302.32s13-10.42,21.26-7.86"/><path class="cls-4" d="M411.52,263.38s1-11.41,5.31-13.12"/><path class="cls-4" d="M447.62,351s12.56,7,16.83,5"/><path d="M302.74,408.79l-10.8,2.89s1.82,10.05-12.3,9.41-2.89,8.66-2.89,8.66h19.79l.68-6.2,3.17,6.2h2.35Z"/><path d="M270.3,408.79l-10.8,2.89s1.82,10.05-12.29,9.41-2.89,8.66-2.89,8.66H264.1l.68-6.2,3.17,6.2h2.35Z"/><rect class="cls-4" x="238.47" y="402.06" width="66.73" height="27.7"/><path class="cls-13" d="M467,373s13.94,4.11,14.63-10.51c0,0,11.53-6.93,22.4,2.78,0,0-6.33,9-7.42,9.11a23.51,23.51,0,0,1-4-.42s13.18,15.2,15.31,15.4c0,0-16.56,15.05-31,16l-5.47-17.82L470,395.19,459.83,397S456.1,377.35,467,373Z"/><path class="cls-4" d="M464.34,373.68s14.81,4.37,15.54-11.17c0,0,12.25-7.36,23.8,3,0,0-6.73,9.57-7.88,9.68a25.57,25.57,0,0,1-4.26-.45s14,16.16,16.26,16.37c0,0-17.59,16-32.91,17l-5.81-18.93-1.54,8.11-10.85,1.87S452.73,378.34,464.34,373.68Z"/><path d="M219.14,241.34a7.87,7.87,0,0,1-4.26-1.19,9.14,9.14,0,0,1-3.09-3.15,8.34,8.34,0,0,1-1.17-4.35l0-13.71a8.29,8.29,0,0,1,1.15-4.32,8.72,8.72,0,0,1,3.09-3.12,8.08,8.08,0,0,1,4.24-1.17,7.93,7.93,0,0,1,4.24,1.17,8.94,8.94,0,0,1,3.05,3.12,8.38,8.38,0,0,1,1.14,4.32l.05,13.71a8.52,8.52,0,0,1-1.15,4.35,8.91,8.91,0,0,1-3.07,3.15A7.87,7.87,0,0,1,219.14,241.34Zm0-5.23a3,3,0,0,0,2.27-1.06,3.46,3.46,0,0,0,1-2.4l0-13.71a3.44,3.44,0,0,0-.91-2.42,3,3,0,0,0-2.29-1,3.07,3.07,0,0,0-2.29,1,3.32,3.32,0,0,0-.95,2.44v13.71a3.4,3.4,0,0,0,.95,2.44A3,3,0,0,0,219.14,236.11Z"/><path d="M231.08,240.91c-.12,0-.18-.07-.18-.22L231,211c0-.11.07-.17.21-.17H236c.15,0,.22.06.22.17l0,11.77h6.48V211c0-.11.06-.17.18-.17h4.8c.14,0,.21.06.21.17l.09,29.71a.19.19,0,0,1-.22.22h-4.84a.19.19,0,0,1-.22-.22V228h-6.48v12.71c0,.15-.06.22-.18.22Z"/><path d="M265.8,241.34a8,8,0,0,1-4.3-1.19,8.75,8.75,0,0,1-3.05-3.17,8.93,8.93,0,0,1-1.12-4.46l0-13.49a8.67,8.67,0,0,1,4.13-7.51,8.39,8.39,0,0,1,8.58,0,8.72,8.72,0,0,1,4.16,7.53v2c0,.11-.06.17-.18.17h-4.84a.15.15,0,0,1-.17-.17v-2a3.58,3.58,0,0,0-.93-2.47,3,3,0,0,0-2.32-1,2.85,2.85,0,0,0-2.38,1.06,3.93,3.93,0,0,0-.82,2.45v13.49a3.67,3.67,0,0,0,.93,2.6,3,3,0,0,0,2.27,1,2.94,2.94,0,0,0,2.32-1.1,3.78,3.78,0,0,0,.93-2.49v-2a.15.15,0,0,1,.17-.17h4.89a.15.15,0,0,1,.17.17v2a8.74,8.74,0,0,1-1.15,4.46,8.91,8.91,0,0,1-3.05,3.17A7.84,7.84,0,0,1,265.8,241.34Z"/><path d="M285.44,241.34a7.87,7.87,0,0,1-4.26-1.19,9.08,9.08,0,0,1-3.1-3.15,8.43,8.43,0,0,1-1.16-4.35l0-13.71a8.29,8.29,0,0,1,1.15-4.32,8.72,8.72,0,0,1,3.09-3.12,8.08,8.08,0,0,1,4.24-1.17,7.9,7.9,0,0,1,4.23,1.17,8.85,8.85,0,0,1,3.05,3.12,8.29,8.29,0,0,1,1.15,4.32l0,13.71a8.51,8.51,0,0,1-1.14,4.35,9,9,0,0,1-3.07,3.15A7.92,7.92,0,0,1,285.44,241.34Zm0-5.23a3,3,0,0,0,2.27-1.06,3.5,3.5,0,0,0,1-2.4l0-13.71a3.48,3.48,0,0,0-.91-2.42,3,3,0,0,0-2.29-1,3.11,3.11,0,0,0-2.3,1,3.36,3.36,0,0,0-.95,2.44v13.71a3.45,3.45,0,0,0,.95,2.44A3,3,0,0,0,285.44,236.11Z"/><path d="M298.32,233c-.11,0-.19-.07-.21-.21l-.91-10V211c0-.15.06-.22.17-.22h4.85c.14,0,.21.07.21.22l0,11.76-.91,10c0,.14-.1.21-.22.21Zm-.95,8c-.11,0-.17-.07-.17-.22V236a.15.15,0,0,1,.17-.17h4.85a.15.15,0,0,1,.17.17v4.71c0,.15-.06.22-.17.22Z"/><path class="cls-4" d="M226.3,101.76c10.85-9,150.66-41.43,176.33,104"/><path class="cls-4" d="M116.09,264C102.23,287.78,134.65,423,267.48,380.21"/><path class="cls-4" d="M204.48,106l13-14.54a3.14,3.14,0,0,1,5.32,1.12l6.09,18.53a3.15,3.15,0,0,1-3.63,4.06l-19.1-4A3.14,3.14,0,0,1,204.48,106Z"/><path class="cls-4" d="M288.05,374.7l-12.74,14.78a3.14,3.14,0,0,1-5.34-1l-6.43-18.42a3.14,3.14,0,0,1,3.55-4.13l19.17,3.65A3.14,3.14,0,0,1,288.05,374.7Z"/></svg>