<svg id="레이어_1" data-name="레이어 1" xmlns="http://www.w3.org/2000/svg" xmlns:xlink="http://www.w3.org/1999/xlink" viewBox="0 0 508.64 441.29"><defs><style>.cls-1,.cls-3,.cls-5{fill:none;}.cls-2{fill:#e2e2e2;}.cls-3,.cls-5{stroke:#000;stroke-miterlimit:10;}.cls-4{fill:#f4f4f4;}.cls-5{stroke-width:2px;}.cls-6{clip-path:url(#clip-path);}</style><clipPath id="clip-path"><rect class="cls-1" x="263.64" y="124.47" width="228.39" height="309.37"/></clipPath></defs><path d="M172.89,403.21c19.87,2.2,23.34,8.83,22.08,14.51-27.84.31-36.28,0-36.28,0s.16-7.57-2.36-7.34-2.37,7.1-2.37,7.1H143.47l-8.75-72.32h22.4S154.91,404.78,172.89,403.21Z"/><path d="M116.27,90.48a7.16,7.16,0,0,1-3.55-8s.63-10.61,24.21-5.71c0,0-4.26-13.77,10.09-24.22,3.71-.78-.14,14.37-.3,15,.34-.53,7.24-11.14,13.08-11.3S155.43,72,155,72.67c.54-.38,10.38-7.37,15.75-5.37,5.52,2.06-12.38,18.93-22.95,17.9,7.26,9.82,4.5,17.26,4.5,17.26s-5.38,11.36-11.22,15.65c.5-5.78,1.28-10.51,1.28-10.51,2-.63,3.63.88,5.68-6.65s-5.52-7-5.52-7-1,6.48-1.08,7.85c-.66-1.51-7.6-9.44-7.6-9.44C124.56,93.39,119.26,92.28,116.27,90.48Z"/><path class="cls-2" d="M156.89,260.29l3.38,38.82a31.44,31.44,0,0,1-6.62,1.92c-7.28,1.42-16.89,1.76-24.29,1.78-6.54,0-11.36-.23-11.36-.23l-1.58-21.46s0,19.88-1.88,22.72c-.77,1.17-8.81.73-18-.18-7.61-.76-16-1.85-21.76-2.63-4.18-.57-6.94-1-6.94-1l10-37c4.71,2.38,15.17,4.69,36.73-1.21C138.46,255.33,151.44,258.15,156.89,260.29Z"/><path d="M145.21,97.53s1.45,3-1.82,3.84A6.79,6.79,0,0,1,145.21,97.53Z"/><path d="M131.52,98.42c.16.54.88,3.34-1.61,3.45-2.76.11-1.81-2.69-1.81-2.69A4,4,0,0,1,131.52,98.42Z"/><path d="M120.53,98.46c1.43,3-1.39,3.41-1.39,3.41s-3-.24-2.24-2.25C117.35,98.48,119.1,98.35,120.53,98.46Z"/><path d="M88.73,348.34l1.51.29s-7.52,65-5.94,69.23H74.78v-7.4s-9.46,4.07-8.83,7.4l-34.7-1.09s-3.91-12.44,26.18-13.88c6.59-.32,6.47-6,6.47-6L68,344.37l2.71.52Z"/><path class="cls-3" d="M116.34,90.19s0,.1-.07.29c-.1.44-.31,1.36-.54,2.62-1.46,7.78-4,28.44,10,27.82a23.68,23.68,0,0,0,8.16-2.1"/><path class="cls-3" d="M141.45,101.76c.07-1.37,1.08-7.85,1.08-7.85s7.57-.48,5.52,7-3.71,6-5.68,6.65c0,0-.78,4.73-1.28,10.51-.67,7.61-.84,17,1.92,19.92,0,0-17.87,11.79-20.94,19.07"/><path class="cls-3" d="M141.45,101.76c.06.11.07.18.05.22S141.45,102,141.45,101.76Z"/><path class="cls-3" d="M146.72,67.6c.16-.65,4-15.8.3-15C132.67,63,136.93,76.8,136.93,76.8c-23.58-4.9-24.21,5.71-24.21,5.71a7.16,7.16,0,0,0,3.55,8c3,1.8,8.29,2.91,17.58,1.84,0,0,6.94,7.93,7.6,9.44"/><path class="cls-3" d="M155,72.67c.42-.66,10.66-16.53,4.79-16.37s-12.74,10.77-13.08,11.3a0,0,0,0,0,0,0"/><path class="cls-3" d="M141.08,118.11h0c5.84-4.29,11.22-15.65,11.22-15.65s2.76-7.44-4.5-17.26c10.57,1,28.47-15.84,22.95-17.9-5.37-2-15.21,5-15.75,5.37l0,0"/><path class="cls-3" d="M143.39,101.37l-.38.08"/><path class="cls-3" d="M143.39,101.37a6.79,6.79,0,0,1,1.82-3.84S146.66,100.51,143.39,101.37Z"/><path class="cls-3" d="M145.21,104.39a3.66,3.66,0,0,1-1.72-2.13,3,3,0,0,1-.1-.89"/><path class="cls-3" d="M115.73,93.1s10.67-3.58,5.58,14.21c0,0,2.37,1.22,5.09-1"/><path class="cls-3" d="M127.54,95.64a5.69,5.69,0,0,1,7-.36"/><path class="cls-3" d="M120.53,98.46a0,0,0,0,0,0,0"/><path class="cls-3" d="M120.53,98.46c-1.43-.11-3.18,0-3.63,1.16-.79,2,2.24,2.25,2.24,2.25S122,101.49,120.53,98.46Z"/><path class="cls-3" d="M122.5,98.75a14.13,14.13,0,0,0-2-.29"/><path class="cls-3" d="M131.52,98.42l0-.09"/><path class="cls-3" d="M131.52,98.42a4,4,0,0,0-3.42.76s-.95,2.8,1.81,2.69C132.4,101.76,131.68,99,131.52,98.42Z"/><path class="cls-3" d="M135,99.86a10.25,10.25,0,0,0-3.52-1.44"/><path class="cls-3" d="M129,110.46s-2.82,4.33-9.68,2.78a.22.22,0,0,1,0-.44,12.81,12.81,0,0,0,4.37-1"/><path class="cls-3" d="M120.68,114.76s.52,1.62,6.86-.51"/><path class="cls-3" d="M125.69,120.92s-.72,13.62-11.15,15.52c0,0,4.14,10.32,7.53,20.66,2.5,7.62,4.59,15.25,4.33,18.77"/><path class="cls-3" d="M158.18,222.27c-.1-2-.2-4-.3-6-1.35-26.43-2.66-49.71-2.66-49.71l30.6,15.78-23,26.49,2.38,5.72,6.34,15.27,2.95,7.09c56.15-58.67,24.6-73.5,24.6-73.5C150.18,129.39,143,138,143,138"/><path class="cls-3" d="M84.91,225.81c-3.7,12-7.39,24-10.54,34.65a8.92,8.92,0,0,0,3.44,2.63c4.71,2.38,15.17,4.69,36.73-1.21,23.92-6.55,36.9-3.73,42.35-1.59a14.41,14.41,0,0,1,3.15,1.59c-.28-6.5-.6-13.67-.95-21.07"/><path class="cls-3" d="M91.61,204c-.78,2.58-1.58,5.21-2.4,7.86a.24.24,0,0,1,0,.08"/><path class="cls-3" d="M114.54,136.44c-15.44-.22-32.19,1.78-60.26,23.55s18.3,74.27,18.3,74.27l6.82-13.71,7.37-14.82L69.11,175.87l35.33-18.77c-1.57,9-6.74,26.84-12.82,46.85"/><path class="cls-3" d="M77.81,263.09l-10,37s2.76.41,6.94,1c5.74.78,14.15,1.87,21.76,2.63,9.19.91,17.23,1.35,18,.18,1.88-2.84,1.88-22.72,1.88-22.72L118,302.58s4.82.24,11.36.23c7.4,0,17-.36,24.29-1.78a31.44,31.44,0,0,0,6.62-1.92l-3.38-38.82"/><path class="cls-3" d="M116.74,276.6s-1.89-5-1.68-8.94"/><path class="cls-3" d="M146.81,260.94s1.05,8.83,6.84,8.83"/><path class="cls-3" d="M149.13,262.09s.52,4.42,3.36,4.52"/><path class="cls-3" d="M82.88,266.61A8.57,8.57,0,0,1,78.57,271"/><path class="cls-3" d="M80.36,266.61s0,.84-1.79,2.21"/><path class="cls-3" d="M78.14,297.1a159.53,159.53,0,0,0,21.08,1.39"/><path class="cls-3" d="M124.89,297.35s16.93,2.2,29.55-3.05"/><line class="cls-3" x1="153.65" y1="301.03" x2="154.44" y2="345.16"/><line class="cls-3" x1="129.36" y1="302.81" x2="136.3" y2="345.16"/><polyline class="cls-3" points="96.54 303.66 88.73 348.34 88.68 348.63"/><polyline class="cls-3" points="74.78 301.03 70.71 344.89 70.68 345.16"/><path class="cls-3" d="M154.44,345.16h2.68s-2.21,59.62,15.77,58c19.87,2.2,23.34,8.83,22.08,14.51-27.84.31-36.28,0-36.28,0s.16-7.57-2.36-7.34-2.37,7.1-2.37,7.1H143.47l-8.75-72.32h19.72Z"/><path class="cls-3" d="M70.71,344.89,68,344.37,63.9,396.9s.12,5.67-6.47,6c-30.09,1.44-26.18,13.88-26.18,13.88L66,417.86c-.63-3.33,8.83-7.4,8.83-7.4v7.4H84.3c-1.58-4.26,5.94-69.23,5.94-69.23l-1.51-.29Z"/><path class="cls-3" d="M92.23,218.66h.07l.13,0h0c1.63.2,12.43,1.49,12.78-.55.31-1.83-11.85-5.23-16-6.33l-1.37-.36"/><path class="cls-3" d="M92.11,222.09c3.24,1.69,11.53,5.6,13,2.57,1.65-3.52-10.85-5.68-12.63-6"/><path class="cls-3" d="M90.8,221.4l.09,0c.17.1.59.33,1.19.63"/><path class="cls-3" d="M92.08,222.08l-1.19-.63"/><path class="cls-3" d="M92.08,222.08h0"/><path class="cls-3" d="M87.61,223.61l.11.08,11.67,8.22s4.1.84,2.42-3c-2.21-2.52-7.29-5.45-9.7-6.77"/><path class="cls-3" d="M79.4,220.55l5.51,5.26,8.38,8s4.73,1.78,3.15-3.05c-4.1-3.53-8-6.53-8.72-7.07"/><path class="cls-3" d="M86.77,205.73S90.45,203,91.61,204h0"/><path class="cls-3" d="M155.44,228.14c-4.34,1.9-10.74,4.15-12,1.49-1.58-3.25,9.93-6.25,14.77-7.36,1.28-.29,2.09-.45,2.09-.45"/><path class="cls-3" d="M159.56,226.16l-.05,0,0,0c-.4.21-2,1-4,1.91"/><path class="cls-3" d="M155.48,228.12c2-1,3.57-1.73,4-1.91"/><path class="cls-3" d="M155.48,228.12l0,0"/><path class="cls-3" d="M160.23,230.28a88.51,88.51,0,0,1-8.71,5.69c-3.59,2-7.11,3.39-8,1.78-1.3-2.44,6.73-7,11.89-9.61"/><path class="cls-3" d="M161.22,234.26l0,0h0a60.15,60.15,0,0,1-6.34,5.08c-2.76,1.86-5.69,3.28-7.2,2.24s.84-3.35,3.87-5.64a93.7,93.7,0,0,1,8.71-5.69l0,0"/><path class="cls-3" d="M159.09,240.81l-4.42,3.88s-4.33,1.1-2.21-3.47l2.39-1.85c3.94-3.08,6.05-4.84,6.34-5.08"/><line class="cls-3" x1="171.52" y1="229.87" x2="159.09" y2="240.81"/><path class="cls-3" d="M165.17,214.6s-7.11,2.44-7.29,1.72v0"/><circle class="cls-4" cx="148.98" cy="176.71" r="3.78"/><circle class="cls-4" cx="105.22" cy="199.96" r="3.78"/><circle class="cls-4" cx="92.31" cy="248.58" r="3.78"/><circle class="cls-4" cx="88.94" cy="145.65" r="3.78"/><circle class="cls-4" cx="53.28" cy="171.26" r="3.78"/><circle class="cls-4" cx="74.77" cy="198.96" r="3.78"/><circle class="cls-4" cx="179.23" cy="203.74" r="3.78"/><circle class="cls-4" cx="199.66" cy="175.86" r="3.78"/><circle class="cls-4" cx="160.04" cy="145.65" r="3.78"/><circle class="cls-4" cx="143.26" cy="252.36" r="3.78"/><circle class="cls-4" cx="126.4" cy="222.78" r="3.78"/><line class="cls-5" x1="213.28" y1="56.29" x2="227.74" y2="56.29"/><line class="cls-5" x1="213.28" y1="425.31" x2="227.74" y2="425.31"/><line class="cls-5" x1="220.51" y1="56.29" x2="220.51" y2="425.32"/><rect class="cls-3" x="16.62" y="40.65" width="228.39" height="393.19"/><rect class="cls-3" x="257.31" y="124.47" width="228.39" height="310.61"/><g class="cls-6"><path d="M419.91,403.21c19.87,2.2,23.34,8.83,22.08,14.51-27.84.31-36.28,0-36.28,0s.16-7.57-2.36-7.34-2.37,7.1-2.37,7.1H390.49l-8.75-72.32h22.4S401.93,404.78,419.91,403.21Z"/><path d="M402,72.67c.54-.38,10.38-7.37,15.75-5.37,5.52,2.06-12.38,18.93-22.95,17.9,7.26,9.82,4.5,17.26,4.5,17.26s-5.38,11.36-11.22,15.65c.5-5.78,1.28-10.51,1.28-10.51,2-.63,3.63.88,5.68-6.65s-5.52-7-5.52-7-1,6.48-1.08,7.85c-.66-1.51-7.6-9.44-7.6-9.44-9.29,1.07-14.59,0-17.58-1.84a7.16,7.16,0,0,1-3.55-8S360.37,71.9,384,76.8c0,0-4.26-13.77,10.09-24.22,3.71-.78-.14,14.37-.3,15,.34-.53,7.24-11.14,13.08-11.3S402.45,72,402,72.67Z"/><path class="cls-2" d="M403.91,260.29l3.38,38.82a31.44,31.44,0,0,1-6.62,1.92c-7.28,1.42-16.89,1.76-24.29,1.78-6.54,0-11.36-.23-11.36-.23l-1.58-21.46s0,19.88-1.88,22.72c-.77,1.17-8.81.73-18-.18-7.61-.76-16-1.85-21.76-2.63-4.18-.57-6.94-1-6.94-1l10-37c4.71,2.38,15.17,4.69,36.73-1.21C385.48,255.33,398.46,258.15,403.91,260.29Z"/><path d="M392.23,97.53s1.45,3-1.82,3.84A6.79,6.79,0,0,1,392.23,97.53Z"/><path d="M378.54,98.42c.16.54.88,3.34-1.61,3.45-2.76.11-1.81-2.69-1.81-2.69A4,4,0,0,1,378.54,98.42Z"/><path d="M367.55,98.46c1.43,3-1.39,3.41-1.39,3.41s-3-.24-2.24-2.25C364.37,98.48,366.12,98.35,367.55,98.46Z"/><path d="M317.73,344.89l18,3.45,1.51.29s-7.52,65-5.94,69.23H321.8v-7.4s-9.46,4.07-8.83,7.4l-34.7-1.09s-3.91-12.44,26.18-13.88c6.59-.32,6.47-6,6.47-6l4.1-52.53Z"/><path class="cls-3" d="M363.36,90.19s0,.1-.07.29c-.1.44-.31,1.36-.54,2.62-1.46,7.78-4,28.44,10,27.82a23.68,23.68,0,0,0,8.16-2.1"/><path class="cls-3" d="M388.47,101.76c.07-1.37,1.08-7.85,1.08-7.85s7.57-.48,5.52,7-3.71,6-5.68,6.65c0,0-.78,4.73-1.28,10.51-.67,7.61-.84,17,1.92,19.92,0,0-17.87,11.79-20.94,19.07"/><path class="cls-3" d="M388.47,101.76c.06.11.07.18,0,.22S388.47,102,388.47,101.76Z"/><path class="cls-3" d="M393.74,67.6c.16-.65,4-15.8.3-15C379.69,63,384,76.8,384,76.8c-23.58-4.9-24.21,5.71-24.21,5.71a7.16,7.16,0,0,0,3.55,8c3,1.8,8.29,2.91,17.58,1.84,0,0,6.94,7.93,7.6,9.44"/><path class="cls-3" d="M402,72.67c.42-.66,10.66-16.53,4.79-16.37s-12.74,10.77-13.08,11.3a0,0,0,0,0,0,0"/><path class="cls-3" d="M388.1,118.11h0c5.84-4.29,11.22-15.65,11.22-15.65s2.76-7.44-4.5-17.26c10.57,1,28.47-15.84,22.95-17.9-5.37-2-15.21,5-15.75,5.37l0,0"/><path class="cls-3" d="M390.41,101.37l-.38.08"/><path class="cls-3" d="M390.41,101.37a6.79,6.79,0,0,1,1.82-3.84S393.68,100.51,390.41,101.37Z"/><path class="cls-3" d="M392.23,104.39a3.66,3.66,0,0,1-1.72-2.13,3,3,0,0,1-.1-.89"/><path class="cls-3" d="M362.75,93.1s10.67-3.58,5.58,14.21c0,0,2.37,1.22,5.09-1"/><path class="cls-3" d="M374.56,95.64a5.69,5.69,0,0,1,7-.36"/><path class="cls-3" d="M367.55,98.46a0,0,0,0,0,0,0"/><path class="cls-3" d="M367.55,98.46c-1.43-.11-3.18,0-3.63,1.16-.79,2,2.24,2.25,2.24,2.25S369,101.49,367.55,98.46Z"/><path class="cls-3" d="M369.52,98.75a14.13,14.13,0,0,0-2-.29"/><path class="cls-3" d="M378.54,98.42l0-.09"/><path class="cls-3" d="M378.54,98.42a4,4,0,0,0-3.42.76s-.95,2.8,1.81,2.69C379.42,101.76,378.7,99,378.54,98.42Z"/><path class="cls-3" d="M382.06,99.86a10.25,10.25,0,0,0-3.52-1.44"/><path class="cls-3" d="M376.06,110.46s-2.82,4.33-9.68,2.78a.22.22,0,0,1,0-.44,12.81,12.81,0,0,0,4.37-1"/><path class="cls-3" d="M367.7,114.76s.52,1.62,6.86-.51"/><path class="cls-3" d="M372.71,120.92s-.72,13.62-11.15,15.52c0,0,4.14,10.32,7.53,20.66,2.5,7.62,4.59,15.25,4.33,18.77"/><path class="cls-3" d="M405.2,222.27c-.1-2-.2-4-.3-6-1.35-26.43-2.66-49.71-2.66-49.71l30.6,15.78-23,26.49,2.38,5.72,6.34,15.27,2.95,7.09c56.15-58.67,24.6-73.5,24.6-73.5C397.2,129.39,390,138,390,138"/><path class="cls-3" d="M331.93,225.81c-3.7,12-7.39,24-10.54,34.65a8.92,8.92,0,0,0,3.44,2.63c4.71,2.38,15.17,4.69,36.73-1.21,23.92-6.55,36.9-3.73,42.35-1.59a14.41,14.41,0,0,1,3.15,1.59c-.28-6.5-.6-13.67-.95-21.07"/><path class="cls-3" d="M338.63,204c-.78,2.58-1.58,5.21-2.4,7.86a.24.24,0,0,1,0,.08"/><path class="cls-3" d="M361.56,136.44c-15.44-.22-32.19,1.78-60.26,23.55s18.3,74.27,18.3,74.27l6.82-13.71,7.37-14.82-17.66-29.86,35.33-18.77c-1.57,9-6.74,26.84-12.82,46.85"/><path class="cls-3" d="M324.83,263.09l-10,37s2.76.41,6.94,1c5.74.78,14.15,1.87,21.76,2.63,9.19.91,17.23,1.35,18,.18,1.88-2.84,1.88-22.72,1.88-22.72L365,302.58s4.82.24,11.36.23c7.4,0,17-.36,24.29-1.78a31.44,31.44,0,0,0,6.62-1.92l-3.38-38.82"/><path class="cls-3" d="M363.76,276.6s-1.89-5-1.68-8.94"/><path class="cls-3" d="M393.83,260.94s1.05,8.83,6.84,8.83"/><path class="cls-3" d="M396.15,262.09s.52,4.42,3.36,4.52"/><path class="cls-3" d="M329.9,266.61a8.57,8.57,0,0,1-4.31,4.42"/><path class="cls-3" d="M327.38,266.61s0,.84-1.79,2.21"/><path class="cls-3" d="M325.16,297.1a159.53,159.53,0,0,0,21.08,1.39"/><path class="cls-3" d="M371.91,297.35s16.93,2.2,29.55-3.05"/><line class="cls-3" x1="400.67" y1="301.03" x2="401.46" y2="345.16"/><line class="cls-3" x1="376.38" y1="302.81" x2="383.32" y2="345.16"/><polyline class="cls-3" points="343.56 303.66 335.75 348.34 335.7 348.63"/><polyline class="cls-3" points="321.8 301.03 317.73 344.89 317.7 345.16"/><path class="cls-3" d="M401.46,345.16h2.68s-2.21,59.62,15.77,58c19.87,2.2,23.34,8.83,22.08,14.51-27.84.31-36.28,0-36.28,0s.16-7.57-2.36-7.34-2.37,7.1-2.37,7.1H390.49l-8.75-72.32h19.72Z"/><path class="cls-3" d="M317.73,344.89l-2.71-.52-4.1,52.53s.12,5.67-6.47,6c-30.09,1.44-26.18,13.88-26.18,13.88l34.7,1.09c-.63-3.33,8.83-7.4,8.83-7.4v7.4h9.52c-1.58-4.26,5.94-69.23,5.94-69.23l-1.51-.29Z"/><path class="cls-3" d="M339.25,218.66h.07l.13,0h0c1.63.2,12.43,1.49,12.78-.55.31-1.83-11.85-5.23-16-6.33l-1.37-.36"/><path class="cls-3" d="M339.13,222.09c3.24,1.69,11.53,5.6,13,2.57,1.65-3.52-10.85-5.68-12.63-6"/><path class="cls-3" d="M337.82,221.4l.09,0c.17.1.59.33,1.19.63"/><path class="cls-3" d="M339.1,222.08l-1.19-.63"/><path class="cls-3" d="M339.1,222.08h0"/><path class="cls-3" d="M334.63,223.61l.11.08,11.67,8.22s4.1.84,2.42-3c-2.21-2.52-7.29-5.45-9.7-6.77"/><path class="cls-3" d="M326.42,220.55l5.51,5.26,8.38,8s4.73,1.78,3.15-3.05c-4.1-3.53-8-6.53-8.72-7.07"/><path class="cls-3" d="M333.79,205.73s3.68-2.75,4.84-1.78h0"/><path class="cls-3" d="M402.46,228.14c-4.34,1.9-10.74,4.15-12,1.49-1.58-3.25,9.93-6.25,14.77-7.36,1.28-.29,2.09-.45,2.09-.45"/><path class="cls-3" d="M406.58,226.16l-.05,0,0,0c-.4.21-2,1-4,1.91"/><path class="cls-3" d="M402.5,228.12c2-1,3.57-1.73,4-1.91"/><path class="cls-3" d="M402.5,228.12l0,0"/><path class="cls-3" d="M407.25,230.28a88.51,88.51,0,0,1-8.71,5.69c-3.59,2-7.11,3.39-8,1.78-1.3-2.44,6.73-7,11.89-9.61"/><path class="cls-3" d="M408.24,234.26l0,0h0a60.15,60.15,0,0,1-6.34,5.08c-2.76,1.86-5.69,3.28-7.2,2.24s.84-3.35,3.87-5.64a93.7,93.7,0,0,1,8.71-5.69l0,0"/><path class="cls-3" d="M406.11,240.81l-4.42,3.88s-4.33,1.1-2.21-3.47l2.39-1.85c3.94-3.08,6.05-4.84,6.34-5.08"/><line class="cls-3" x1="418.54" y1="229.87" x2="406.11" y2="240.81"/><path class="cls-3" d="M412.19,214.6s-7.11,2.44-7.29,1.72v0"/><circle class="cls-4" cx="396" cy="176.71" r="3.78"/><circle class="cls-4" cx="352.24" cy="199.96" r="3.78"/><circle class="cls-4" cx="339.33" cy="248.58" r="3.78"/><circle class="cls-4" cx="335.96" cy="145.65" r="3.78"/><circle class="cls-4" cx="300.3" cy="171.26" r="3.78"/><circle class="cls-4" cx="321.79" cy="198.32" r="3.78"/><circle class="cls-4" cx="426.25" cy="203.74" r="3.78"/><circle class="cls-4" cx="446.68" cy="175.86" r="3.78"/><circle class="cls-4" cx="407.06" cy="145.65" r="3.78"/><circle class="cls-4" cx="390.28" cy="252.36" r="3.78"/><circle class="cls-4" cx="373.42" cy="222.78" r="3.78"/><line class="cls-5" x1="460.3" y1="132.26" x2="474.76" y2="132.26"/><line class="cls-5" x1="460.3" y1="425.32" x2="474.76" y2="425.32"/><line class="cls-5" x1="467.53" y1="132.26" x2="467.53" y2="425.32"/></g><path d="M21.37,5.73H18.68V3.4H24V23.65H21.37Z"/><path d="M29.55,23.81a1.74,1.74,0,1,1,1.68-1.73A1.71,1.71,0,0,1,29.55,23.81Z"/><path d="M260.74,103.3C266.06,99,271.1,95,271.1,90.84c0-2.24-1-3.92-3.72-3.92s-4,1.82-4.09,4.37h-2.46c.16-4.31,2.88-6.55,6.52-6.55,3.81,0,6.27,2.24,6.27,6,0,5-5.43,9.32-9,12.26h9.63v2.13H260.74Z"/><path d="M278.38,105.51a1.74,1.74,0,1,1,1.68-1.73A1.69,1.69,0,0,1,278.38,105.51Z"/></svg>